<svg width="352" height="370" viewBox="0 0 352 370" fill="none" xmlns="http://www.w3.org/2000/svg">
<mask id="mask0_2_1457" style="mask-type:alpha" maskUnits="userSpaceOnUse" x="0" y="0" width="352" height="370">
<rect width="352" height="370" fill="white"/>
</mask>
<g mask="url(#mask0_2_1457)">
<rect width="352" height="370" fill="white"/>
<g filter="url(#filter0_d_2_1457)">
<path d="M165.958 96.3108C164.088 95.2843 162.247 94.2063 160.437 93.078C158.933 92.1939 157.987 91.511 157.987 91.511L147.954 89.6474C150.433 84.6544 151.005 78.9287 149.564 73.544C146.279 61.2853 133.63 53.9804 121.367 57.2663C109.103 60.5522 101.801 73.2031 105.086 85.4618C108.371 97.7205 121.02 105.025 133.283 101.739C138.884 100.239 143.428 96.7741 146.427 92.2969L153.058 100.053C153.058 100.053 154.122 100.531 155.639 101.391C157.178 102.214 159.213 103.341 161.2 104.555L166.699 107.821L169.168 109.359L174.101 100.816L171.535 99.4469C170.014 98.5878 167.986 97.4493 165.958 96.3108ZM131.581 95.3862C122.822 97.7331 113.787 92.5173 111.44 83.7593C109.093 75.0012 114.31 65.9666 123.069 63.6196C131.828 61.2727 140.863 66.4885 143.21 75.2465C145.557 84.0046 140.34 93.0392 131.581 95.3862Z" fill="black"/>
</g>
<g filter="url(#filter1_d_2_1457)">
<path d="M107.509 164.327L105.385 156.399L112.762 132.557L119.681 134.828L113.376 155.251L114.286 156.051L123.652 153.542L120.472 141.672L127.473 139.796L130.653 151.666L134.548 150.622L136.163 156.65L132.268 157.693L134.007 164.184L127.006 166.06L125.267 159.569L107.509 164.327ZM156.817 159.016C154.128 159.737 151.709 159.921 149.561 159.569C147.413 159.217 145.529 158.43 143.909 157.208C142.29 155.985 140.937 154.459 139.85 152.63C138.764 150.801 137.922 148.774 137.326 146.548L136.618 143.905C135.798 140.845 135.593 137.919 136.004 135.125C136.407 132.301 137.522 129.848 139.35 127.768C141.178 125.688 143.808 124.189 147.239 123.269C150.67 122.35 153.681 122.338 156.273 123.234C158.896 124.121 161.088 125.687 162.849 127.932C164.602 130.146 165.888 132.783 166.708 135.843L167.416 138.486C168.013 140.711 168.282 142.892 168.225 145.027C168.199 147.154 167.79 149.152 166.999 151.021C166.238 152.881 165.016 154.501 163.331 155.88C161.678 157.25 159.506 158.296 156.817 159.016ZM154.941 152.015C157.445 151.345 159.068 149.982 159.809 147.928C160.573 145.835 160.463 142.949 159.477 139.271C158.434 135.376 157.051 132.749 155.328 131.388C153.628 129.989 151.556 129.616 149.115 130.27C146.642 130.933 145 132.284 144.188 134.324C143.407 136.355 143.534 139.303 144.569 143.166C145.572 146.906 146.911 149.496 148.589 150.935C150.289 152.334 152.407 152.695 154.941 152.015ZM174.023 146.505L171.898 138.577L179.275 114.735L186.194 117.006L179.889 137.429L180.799 138.229L190.165 135.719L186.985 123.85L193.986 121.974L197.166 133.844L201.061 132.8L202.676 138.827L198.781 139.871L200.52 146.362L193.519 148.238L191.78 141.747L174.023 146.505Z" fill="#E60000"/>
<path d="M50.0775 248.79L41.0085 214.944L53.4806 211.602L73.6475 235.865L74.2966 235.691L66.8799 208.011L74.02 206.098L83.089 239.944L70.5243 243.311L50.3573 219.048L49.7082 219.222L57.1249 246.901L50.0775 248.79ZM102.89 235.583C99.9224 236.378 97.2264 236.454 94.8015 235.812C92.4075 235.161 90.4088 234.007 88.8051 232.35C87.1932 230.662 86.0767 228.658 85.4555 226.34L85.1698 225.274C84.5321 222.894 84.5046 220.566 85.0872 218.289C85.6926 215.974 86.8733 213.951 88.6295 212.222C90.4084 210.453 92.7351 209.183 95.6097 208.413C98.4843 207.643 101.134 207.579 103.559 208.221C105.975 208.833 108.009 209.994 109.66 211.705C111.334 213.377 112.49 215.402 113.128 217.782L113.413 218.849C114.034 221.167 114.054 223.464 113.471 225.741C112.911 227.978 111.757 229.977 110.009 231.737C108.261 233.498 105.888 234.779 102.89 235.583ZM101.213 229.324C103.345 228.752 104.786 227.637 105.534 225.979C106.305 224.282 106.413 222.398 105.858 220.327C105.287 218.194 104.227 216.589 102.68 215.513C101.156 214.398 99.3578 214.117 97.2869 214.672C95.2159 215.227 93.7991 216.369 93.0364 218.097C92.2655 219.795 92.1657 221.71 92.7372 223.842C93.2921 225.913 94.3123 227.495 95.7977 228.588C97.2749 229.65 99.0799 229.895 101.213 229.324ZM133.465 226.794C130.899 227.481 128.745 227.727 127.003 227.531C125.253 227.305 123.808 226.549 122.669 225.264C121.552 223.94 120.65 221.995 119.963 219.43L117.267 209.368L113.419 210.4L111.965 204.975L115.813 203.944L113.975 197.082L120.883 195.231L122.722 202.093L130.14 200.105L131.593 205.53L124.175 207.517L126.945 217.857C127.268 219.062 127.826 219.907 128.618 220.39C129.433 220.834 130.428 220.899 131.602 220.584L135.358 219.578L137.035 225.837L133.465 226.794ZM152.088 221.456L143.019 187.61L163.327 182.168L165.017 188.474L152.313 191.878L154.35 199.482L166.498 196.227L168.187 202.532L156.04 205.787L159.692 219.418L152.088 221.456ZM189.597 212.35C186.629 213.145 183.933 213.221 181.508 212.579C179.114 211.928 177.116 210.774 175.512 209.117C173.9 207.429 172.784 205.425 172.162 203.107L171.877 202.041C171.239 199.661 171.211 197.332 171.794 195.056C172.399 192.741 173.58 190.718 175.336 188.989C177.115 187.22 179.442 185.95 182.317 185.18C185.191 184.41 187.841 184.346 190.266 184.988C192.682 185.6 194.716 186.761 196.367 188.472C198.041 190.143 199.197 192.169 199.835 194.549L200.12 195.616C200.741 197.934 200.761 200.231 200.178 202.508C199.618 204.745 198.464 206.744 196.716 208.504C194.968 210.264 192.595 211.546 189.597 212.35ZM187.92 206.091C190.052 205.519 191.493 204.404 192.241 202.746C193.012 201.049 193.12 199.164 192.565 197.094C191.994 194.961 190.934 193.356 189.387 192.28C187.863 191.165 186.065 190.884 183.994 191.439C181.923 191.994 180.506 193.136 179.743 194.864C178.972 196.562 178.873 198.477 179.444 200.609C179.999 202.68 181.019 204.262 182.505 205.355C183.982 206.417 185.787 206.662 187.92 206.091ZM217.329 204.82C214.392 205.606 211.883 205.268 209.802 203.805C207.72 202.342 206.162 199.679 205.126 195.815L201.176 181.071L208.594 179.083L212.644 194.198C213.008 195.558 213.685 196.536 214.673 197.133C215.661 197.73 216.804 197.854 218.102 197.506C219.431 197.15 220.401 196.443 221.012 195.385C221.623 194.327 221.738 193.087 221.357 191.665L217.357 176.735L224.775 174.748L231.583 200.155L225.695 201.733L224.105 195.798C224.255 200.562 222.104 203.54 217.653 204.733L217.329 204.82ZM238.423 198.322L231.615 172.915L237.504 171.337L239.243 177.828C238.963 172.702 241.172 169.509 245.87 168.251L246.194 168.164C249.131 167.377 251.648 167.746 253.746 169.271C255.836 170.765 257.407 173.474 258.459 177.4L262.347 191.912L254.929 193.9L250.929 178.97C250.564 177.61 249.864 176.605 248.829 175.955C247.793 175.305 246.595 175.162 245.235 175.527C243.844 175.899 242.836 176.65 242.211 177.778C241.608 178.867 241.498 180.123 241.879 181.545L245.842 196.335L238.423 198.322ZM279.371 188.245C276.991 188.883 274.74 188.89 272.618 188.266C270.519 187.602 268.698 186.434 267.157 184.76C265.615 183.086 264.517 181.028 263.862 178.586L263.577 177.519C262.922 175.078 262.809 172.739 263.237 170.504C263.666 168.269 264.607 166.344 266.063 164.728C267.549 163.104 269.482 161.973 271.862 161.336C275.571 160.342 278.684 161.015 281.199 163.356L278.007 151.44L285.471 149.44L294.54 183.286L288.652 184.864L287.223 179.532C286.927 181.765 286.101 183.626 284.744 185.116C283.387 186.606 281.596 187.649 279.371 188.245ZM279.561 181.535C281.261 181.08 282.576 180.115 283.506 178.64C284.436 177.165 284.619 175.376 284.056 173.274L283.596 171.559C283.24 170.23 282.644 169.18 281.808 168.41C280.964 167.61 279.997 167.09 278.906 166.852C277.815 166.615 276.714 166.645 275.601 166.943C273.715 167.448 272.352 168.542 271.511 170.225C270.67 171.908 270.544 173.847 271.132 176.042C271.728 178.267 272.803 179.868 274.356 180.843C275.94 181.81 277.675 182.041 279.561 181.535Z" fill="black"/>
</g>
<g filter="url(#filter2_d_2_1457)">
<rect x="230.805" y="239.991" width="101.805" height="107.163" fill="white"/>
<path d="M225 341.2C225 348.259 230.741 354 237.8 354H327.4C334.459 354 340.2 348.259 340.2 341.2V245.2C340.2 238.141 334.459 232.4 327.4 232.4H314.6C314.6 230.703 313.926 229.075 312.725 227.875C311.525 226.674 309.897 226 308.2 226H257C255.303 226 253.675 226.674 252.475 227.875C251.274 229.075 250.6 230.703 250.6 232.4H237.8C230.741 232.4 225 238.141 225 245.2V341.2ZM237.8 245.2H250.6V258H314.6V245.2H327.4V341.2H237.8V245.2Z" fill="black"/>
<path d="M297.269 279.088L282.6 293.757L267.931 279.088L258.881 288.138L273.55 302.806L258.881 317.475L267.931 326.525L282.6 311.856L297.269 326.525L306.318 317.475L291.649 302.806L306.318 288.138L297.269 279.088Z" fill="#EF2B10"/>
</g>
</g>
<defs>
<filter id="filter0_d_2_1457" x="96.2992" y="49.4792" width="85.8018" height="68.8797" filterUnits="userSpaceOnUse" color-interpolation-filters="sRGB">
<feFlood flood-opacity="0" result="BackgroundImageFix"/>
<feColorMatrix in="SourceAlpha" type="matrix" values="0 0 0 0 0 0 0 0 0 0 0 0 0 0 0 0 0 0 127 0" result="hardAlpha"/>
<feOffset dy="1"/>
<feGaussianBlur stdDeviation="4"/>
<feComposite in2="hardAlpha" operator="out"/>
<feColorMatrix type="matrix" values="0 0 0 0 0 0 0 0 0 0 0 0 0 0 0 0 0 0 0.25 0"/>
<feBlend mode="normal" in2="BackgroundImageFix" result="effect1_dropShadow_2_1457"/>
<feBlend mode="normal" in="SourceGraphic" in2="effect1_dropShadow_2_1457" result="shape"/>
</filter>
<filter id="filter1_d_2_1457" x="17.2061" y="83.4644" width="285.57" height="175.206" filterUnits="userSpaceOnUse" color-interpolation-filters="sRGB">
<feFlood flood-opacity="0" result="BackgroundImageFix"/>
<feColorMatrix in="SourceAlpha" type="matrix" values="0 0 0 0 0 0 0 0 0 0 0 0 0 0 0 0 0 0 127 0" result="hardAlpha"/>
<feOffset dy="1"/>
<feGaussianBlur stdDeviation="4"/>
<feComposite in2="hardAlpha" operator="out"/>
<feColorMatrix type="matrix" values="0 0 0 0 0 0 0 0 0 0 0 0 0 0 0 0 0 0 0.25 0"/>
<feBlend mode="normal" in2="BackgroundImageFix" result="effect1_dropShadow_2_1457"/>
<feBlend mode="normal" in="SourceGraphic" in2="effect1_dropShadow_2_1457" result="shape"/>
</filter>
<filter id="filter2_d_2_1457" x="217" y="219" width="131.2" height="144" filterUnits="userSpaceOnUse" color-interpolation-filters="sRGB">
<feFlood flood-opacity="0" result="BackgroundImageFix"/>
<feColorMatrix in="SourceAlpha" type="matrix" values="0 0 0 0 0 0 0 0 0 0 0 0 0 0 0 0 0 0 127 0" result="hardAlpha"/>
<feOffset dy="1"/>
<feGaussianBlur stdDeviation="4"/>
<feComposite in2="hardAlpha" operator="out"/>
<feColorMatrix type="matrix" values="0 0 0 0 0 0 0 0 0 0 0 0 0 0 0 0 0 0 0.25 0"/>
<feBlend mode="normal" in2="BackgroundImageFix" result="effect1_dropShadow_2_1457"/>
<feBlend mode="normal" in="SourceGraphic" in2="effect1_dropShadow_2_1457" result="shape"/>
</filter>
</defs>
</svg>
