<svg width="352" height="370" viewBox="0 0 352 370" fill="none" xmlns="http://www.w3.org/2000/svg">
<mask id="mask0_2_1542" style="mask-type:alpha" maskUnits="userSpaceOnUse" x="0" y="0" width="352" height="370">
<rect width="352" height="370" fill="white"/>
</mask>
<g mask="url(#mask0_2_1542)">
<rect width="352" height="370" fill="white"/>
<g filter="url(#filter0_d_2_1542)">
<path d="M80.6937 181.018C78.53 181.598 76.5142 181.741 74.6463 181.446C72.8093 181.143 71.1688 180.523 69.7248 179.584C68.2725 178.615 67.0611 177.432 66.0906 176.036C65.1118 174.609 64.403 173.076 63.964 171.438L63.7155 170.51C63.2683 168.841 63.1117 167.144 63.2456 165.419C63.3796 163.693 63.8373 162.063 64.6188 160.529C65.4003 158.994 66.4839 157.66 67.8698 156.527C69.2784 155.354 71.0336 154.486 73.1354 153.923C75.8555 153.194 78.3084 153.2 80.4943 153.939C82.7028 154.639 84.5666 155.846 86.0858 157.559C87.605 159.272 88.671 161.273 89.2839 163.56L89.9547 166.064L71.3626 171.045C72.0737 172.71 73.0604 173.92 74.3228 174.675C75.6079 175.391 77.1931 175.496 79.0786 174.991C80.4077 174.635 81.4388 174.093 82.1717 173.367C82.9273 172.601 83.352 171.775 83.4457 170.889L90.2613 169.063C90.4007 171.808 89.6234 174.286 87.9296 176.495C86.2584 178.666 83.8464 180.173 80.6937 181.018ZM74.7504 159.951C73.1431 160.381 71.9537 161.197 71.1822 162.397C70.4332 163.559 70.1475 165.027 70.3248 166.801L81.7304 163.745C81.0276 162.112 80.077 160.975 78.8787 160.335C77.7029 159.656 76.3268 159.528 74.7504 159.951ZM97.7526 175.503L90.9447 150.095L96.833 148.518L98.5722 155.009C98.2919 149.883 100.501 146.69 105.199 145.431L105.524 145.344C108.46 144.557 110.977 144.926 113.076 146.451C115.165 147.945 116.736 150.655 117.788 154.581L121.677 169.093L114.258 171.08L110.258 156.151C109.894 154.791 109.194 153.786 108.158 153.136C107.123 152.486 105.925 152.343 104.565 152.707C103.174 153.08 102.166 153.83 101.54 154.959C100.938 156.048 100.827 157.303 101.208 158.725L105.171 173.515L97.7526 175.503ZM138.7 165.426C136.32 166.063 134.069 166.07 131.947 165.446C129.848 164.783 128.028 163.614 126.486 161.94C124.944 160.266 123.846 158.208 123.192 155.766L122.906 154.7C122.252 152.258 122.139 149.92 122.567 147.685C122.995 145.45 123.937 143.525 125.392 141.909C126.878 140.285 128.812 139.154 131.192 138.516C134.901 137.522 138.013 138.196 140.529 140.536L137.336 128.621L144.801 126.621L153.87 160.467L147.981 162.044L146.553 156.712C146.256 158.945 145.43 160.807 144.073 162.296C142.717 163.786 140.926 164.829 138.7 165.426ZM138.89 158.716C140.59 158.26 141.905 157.295 142.835 155.82C143.765 154.345 143.948 152.557 143.385 150.455L142.925 148.74C142.569 147.41 141.973 146.361 141.138 145.591C140.294 144.79 139.326 144.271 138.236 144.033C137.145 143.795 136.043 143.825 134.93 144.124C133.045 144.629 131.682 145.723 130.841 147.406C129.999 149.089 129.873 151.028 130.461 153.222C131.057 155.448 132.132 157.048 133.685 158.023C135.27 158.99 137.005 159.221 138.89 158.716ZM157.199 129.659C155.808 130.032 154.678 129.954 153.807 129.425C152.959 128.857 152.386 128.017 152.088 126.904C151.782 125.76 151.858 124.746 152.316 123.861C152.798 122.937 153.734 122.289 155.125 121.916C156.516 121.543 157.635 121.641 158.483 122.209C159.353 122.738 159.942 123.574 160.248 124.718C160.547 125.83 160.455 126.849 159.974 127.773C159.515 128.658 158.59 129.286 157.199 129.659ZM161.804 158.341L156.462 138.404L153.077 139.311L151.611 133.84L162.414 130.945L169.222 156.353L161.804 158.341ZM176.64 154.365L171.422 134.892L168.408 135.7L166.955 130.275L169.968 129.468L169.769 128.726C168.221 122.946 170.738 119.174 177.322 117.41L180.567 116.54L182.058 122.104L178.488 123.06C176.726 123.532 176.081 124.649 176.554 126.411L176.877 127.617L183.46 125.853L184.914 131.277L178.33 133.041L183.548 152.514L176.64 154.365ZM114.447 234.091C112.283 234.67 110.268 234.813 108.4 234.518C106.563 234.215 104.922 233.595 103.478 232.657C102.026 231.688 100.815 230.505 99.844 229.108C98.8653 227.681 98.1564 226.148 97.7174 224.51L97.469 223.583C97.0217 221.914 96.8651 220.216 96.9991 218.491C97.1331 216.765 97.5908 215.135 98.3723 213.601C99.1537 212.066 100.237 210.732 101.623 209.599C103.032 208.427 104.787 207.559 106.889 206.996C109.609 206.267 112.062 206.272 114.248 207.011C116.456 207.712 118.32 208.918 119.839 210.632C121.358 212.345 122.424 214.345 123.037 216.632L123.708 219.136L105.116 224.118C105.827 225.782 106.814 226.992 108.076 227.747C109.361 228.463 110.947 228.568 112.832 228.063C114.161 227.707 115.192 227.166 115.925 226.439C116.681 225.674 117.105 224.848 117.199 223.961L124.015 222.135C124.154 224.88 123.377 227.358 121.683 229.568C120.012 231.738 117.6 233.246 114.447 234.091ZM108.504 213.023C106.897 213.454 105.707 214.269 104.936 215.47C104.187 216.631 103.901 218.099 104.078 219.874L115.484 216.818C114.781 215.184 113.83 214.047 112.632 213.408C111.456 212.729 110.08 212.601 108.504 213.023ZM131.831 228.488L124.228 200.113L121.214 200.921L119.748 195.45L130.226 192.642L139.295 226.488L131.831 228.488ZM155.986 222.861C152.369 223.83 149.342 223.846 146.905 222.909C144.467 221.972 142.826 220.175 141.982 217.519L148.566 215.755C148.874 216.534 149.548 217.132 150.587 217.549C151.618 217.935 152.984 217.901 154.684 217.445C155.951 217.106 156.96 216.604 157.709 215.939C158.459 215.274 158.717 214.509 158.485 213.644C158.287 212.902 157.805 212.402 157.04 212.143C156.266 211.853 155.02 211.839 153.301 212.101L151.258 212.45C148.107 212.93 145.576 212.697 143.667 211.751C141.788 210.797 140.554 209.222 139.966 207.028C139.486 205.235 139.532 203.616 140.106 202.17C140.71 200.716 141.717 199.469 143.128 198.428C144.539 197.388 146.264 196.594 148.304 196.047C151.581 195.169 154.403 195.192 156.77 196.115C159.16 196.998 160.781 198.783 161.634 201.47L155.05 203.234C154.711 202.464 154.077 201.888 153.147 201.508C152.247 201.12 151.087 201.116 149.665 201.497C148.521 201.803 147.668 202.264 147.103 202.879C146.539 203.494 146.357 204.172 146.556 204.914C146.746 205.625 147.185 206.087 147.871 206.301C148.558 206.514 149.587 206.52 150.957 206.319L153 205.97C156.182 205.482 158.829 205.717 160.941 206.675C163.076 207.594 164.454 209.212 165.075 211.53C165.762 214.096 165.285 216.394 163.642 218.424C162 220.454 159.448 221.933 155.986 222.861ZM183.767 215.516C181.604 216.096 179.588 216.239 177.72 215.944C175.883 215.641 174.243 215.021 172.799 214.082C171.346 213.113 170.135 211.93 169.164 210.534C168.186 209.107 167.477 207.574 167.038 205.936L166.789 205.008C166.342 203.339 166.185 201.642 166.319 199.917C166.453 198.191 166.911 196.561 167.693 195.027C168.474 193.492 169.558 192.158 170.944 191.025C172.352 189.852 174.107 188.984 176.209 188.421C178.929 187.692 181.382 187.698 183.568 188.437C185.776 189.137 187.64 190.344 189.159 192.057C190.679 193.771 191.745 195.771 192.358 198.058L193.028 200.562L174.436 205.543C175.147 207.208 176.134 208.418 177.397 209.173C178.682 209.889 180.267 209.994 182.152 209.489C183.481 209.133 184.512 208.591 185.245 207.865C186.001 207.099 186.426 206.273 186.519 205.387L193.335 203.561C193.474 206.306 192.697 208.784 191.003 210.993C189.332 213.164 186.92 214.671 183.767 215.516ZM177.824 194.449C176.217 194.879 175.027 195.695 174.256 196.896C173.507 198.057 173.221 199.525 173.399 201.299L184.804 198.243C184.101 196.61 183.151 195.473 181.952 194.833C180.777 194.154 179.401 194.026 177.824 194.449ZM147.236 256.562C145.845 256.935 144.714 256.857 143.844 256.328C142.996 255.76 142.423 254.92 142.125 253.807C141.818 252.663 141.894 251.649 142.353 250.764C142.834 249.84 143.77 249.192 145.161 248.819C146.552 248.446 147.672 248.544 148.52 249.112C149.39 249.64 149.979 250.477 150.285 251.62C150.583 252.733 150.492 253.751 150.01 254.676C149.552 255.56 148.627 256.189 147.236 256.562ZM151.84 285.243L146.498 265.307L143.114 266.214L141.648 260.743L152.451 257.848L159.259 283.256L151.84 285.243ZM166.676 281.268L161.458 261.795L158.445 262.603L156.991 257.178L160.005 256.371L159.806 255.629C158.257 249.849 160.775 246.076 167.359 244.312L170.604 243.443L172.095 249.006L168.525 249.963C166.763 250.435 166.118 251.552 166.59 253.314L166.913 254.519L173.497 252.755L174.95 258.18L168.367 259.944L173.584 279.417L166.676 281.268Z" fill="#E60000"/>
</g>
<g filter="url(#filter1_d_2_1542)">
<rect x="230.805" y="239.991" width="101.805" height="107.163" fill="white"/>
<path d="M225 341.2C225 348.259 230.741 354 237.8 354H327.4C334.459 354 340.2 348.259 340.2 341.2V245.2C340.2 238.141 334.459 232.4 327.4 232.4H314.6C314.6 230.703 313.926 229.075 312.725 227.875C311.525 226.674 309.897 226 308.2 226H257C255.303 226 253.675 226.674 252.475 227.875C251.274 229.075 250.6 230.703 250.6 232.4H237.8C230.741 232.4 225 238.141 225 245.2V341.2ZM237.8 245.2H250.6V258H314.6V245.2H327.4V341.2H237.8V245.2Z" fill="black"/>
<path d="M297.269 279.088L282.6 293.757L267.931 279.088L258.881 288.138L273.55 302.806L258.881 317.475L267.931 326.525L282.6 311.856L297.269 326.525L306.318 317.475L291.649 302.806L306.318 288.138L297.269 279.088Z" fill="#EF2B10"/>
</g>
<g filter="url(#filter2_d_2_1542)">
<path d="M124.373 41.7618L71.771 55.8564C68.1448 56.828 65.986 60.5672 66.9576 64.1934L79.2904 110.22C80.262 113.846 84.0012 116.005 87.6274 115.033L140.229 100.939C143.855 99.9671 146.014 96.2279 145.042 92.6017L132.71 46.5752C131.738 42.949 127.999 40.7902 124.373 41.7618ZM85.8656 108.458L75.2947 69.0068L127.896 54.9122L138.474 94.3617L85.8656 108.458Z" fill="black"/>
</g>
<path d="M94.7157 71.8827L85.7941 87.3354L101.247 96.257L104.65 90.3627L95.0914 84.8442L100.61 75.2858L94.7157 71.8827ZM112.515 67.1134L109.112 73.0077L118.67 78.5263L113.152 88.0847L119.046 91.4877L127.967 76.035L112.515 67.1134Z" fill="black"/>
</g>
<defs>
<filter id="filter0_d_2_1542" x="49.6902" y="108.096" width="179.5" height="200.493" filterUnits="userSpaceOnUse" color-interpolation-filters="sRGB">
<feFlood flood-opacity="0" result="BackgroundImageFix"/>
<feColorMatrix in="SourceAlpha" type="matrix" values="0 0 0 0 0 0 0 0 0 0 0 0 0 0 0 0 0 0 127 0" result="hardAlpha"/>
<feOffset dy="1"/>
<feGaussianBlur stdDeviation="4"/>
<feComposite in2="hardAlpha" operator="out"/>
<feColorMatrix type="matrix" values="0 0 0 0 0 0 0 0 0 0 0 0 0 0 0 0 0 0 0.25 0"/>
<feBlend mode="normal" in2="BackgroundImageFix" result="effect1_dropShadow_2_1542"/>
<feBlend mode="normal" in="SourceGraphic" in2="effect1_dropShadow_2_1542" result="shape"/>
</filter>
<filter id="filter1_d_2_1542" x="217" y="219" width="131.2" height="144" filterUnits="userSpaceOnUse" color-interpolation-filters="sRGB">
<feFlood flood-opacity="0" result="BackgroundImageFix"/>
<feColorMatrix in="SourceAlpha" type="matrix" values="0 0 0 0 0 0 0 0 0 0 0 0 0 0 0 0 0 0 127 0" result="hardAlpha"/>
<feOffset dy="1"/>
<feGaussianBlur stdDeviation="4"/>
<feComposite in2="hardAlpha" operator="out"/>
<feColorMatrix type="matrix" values="0 0 0 0 0 0 0 0 0 0 0 0 0 0 0 0 0 0 0.25 0"/>
<feBlend mode="normal" in2="BackgroundImageFix" result="effect1_dropShadow_2_1542"/>
<feBlend mode="normal" in="SourceGraphic" in2="effect1_dropShadow_2_1542" result="shape"/>
</filter>
<filter id="filter2_d_2_1542" x="58.7249" y="34.529" width="94.5505" height="89.7371" filterUnits="userSpaceOnUse" color-interpolation-filters="sRGB">
<feFlood flood-opacity="0" result="BackgroundImageFix"/>
<feColorMatrix in="SourceAlpha" type="matrix" values="0 0 0 0 0 0 0 0 0 0 0 0 0 0 0 0 0 0 127 0" result="hardAlpha"/>
<feOffset dy="1"/>
<feGaussianBlur stdDeviation="4"/>
<feComposite in2="hardAlpha" operator="out"/>
<feColorMatrix type="matrix" values="0 0 0 0 0 0 0 0 0 0 0 0 0 0 0 0 0 0 0.25 0"/>
<feBlend mode="normal" in2="BackgroundImageFix" result="effect1_dropShadow_2_1542"/>
<feBlend mode="normal" in="SourceGraphic" in2="effect1_dropShadow_2_1542" result="shape"/>
</filter>
</defs>
</svg>
