<svg width="352" height="370" viewBox="0 0 352 370" fill="none" xmlns="http://www.w3.org/2000/svg">
<mask id="mask0_2_1561" style="mask-type:alpha" maskUnits="userSpaceOnUse" x="0" y="0" width="352" height="370">
<rect width="352" height="370" fill="white"/>
</mask>
<g mask="url(#mask0_2_1561)">
<rect width="352" height="370" fill="white"/>
<g filter="url(#filter0_d_2_1561)">
<path d="M71.3997 200.15C68.216 201.003 65.3541 201.14 62.8139 200.562C60.2963 199.945 58.1716 198.692 56.4399 196.804C54.7082 194.916 53.4407 192.473 52.6373 189.474L47.258 169.399L54.8618 167.361L60.3156 187.715C60.912 189.941 62.0064 191.552 63.5989 192.55C65.2141 193.509 67.1807 193.677 69.499 193.056C71.8172 192.435 73.4206 191.31 74.3091 189.68C75.2285 188.042 75.386 186.095 74.7814 183.839L69.3275 163.485L76.9313 161.448L82.3106 181.523C83.114 184.522 83.2378 187.271 82.6822 189.772C82.1266 192.273 80.913 194.421 79.0414 196.214C77.1616 197.977 74.6143 199.289 71.3997 200.15ZM99.6043 191.648L92.3118 164.433L82.8071 166.979L81.0306 160.349L107.69 153.206L109.467 159.836L99.9156 162.395L107.208 189.611L99.6043 191.648ZM121.542 185.77L112.473 151.924L132.781 146.483L134.47 152.788L121.767 156.192L123.804 163.796L135.951 160.541L137.641 166.847L125.494 170.102L129.146 183.733L121.542 185.77ZM142.819 169.534L141.055 162.95L160.574 157.72L162.339 164.304L142.819 169.534ZM182.703 170.426C179.983 171.155 177.495 171.391 175.24 171.134C173.015 170.868 171.124 170.116 169.566 168.877C168.04 167.63 166.978 165.893 166.382 163.668C165.818 161.566 165.856 159.667 166.495 157.972C167.165 156.269 168.263 154.865 169.789 153.76L169.628 153.157C168.158 152.988 166.818 152.436 165.606 151.502C164.426 150.559 163.588 149.161 163.091 147.306C162.536 145.235 162.617 143.375 163.335 141.725C164.075 140.036 165.296 138.599 166.999 137.413C168.694 136.197 170.732 135.27 173.112 134.632C175.523 133.986 177.766 133.766 179.842 133.972C181.91 134.147 183.671 134.785 185.126 135.886C186.572 136.956 187.573 138.526 188.128 140.597C188.624 142.452 188.598 144.083 188.047 145.489C187.496 146.895 186.611 148.044 185.392 148.934L185.553 149.536C187.458 149.722 189.111 150.388 190.512 151.537C191.944 152.677 192.942 154.298 193.505 156.4C194.101 158.626 194.035 160.664 193.305 162.516C192.606 164.36 191.345 165.957 189.52 167.307C187.695 168.657 185.423 169.697 182.703 170.426ZM176.851 148.588C178.459 148.157 179.639 147.493 180.392 146.596C181.146 145.698 181.349 144.6 181.001 143.302C180.661 142.035 179.941 141.201 178.84 140.8C177.738 140.4 176.384 140.415 174.777 140.845C173.169 141.276 171.993 141.956 171.248 142.884C170.495 143.782 170.284 144.849 170.615 146.085C170.963 147.383 171.687 148.233 172.789 148.633C173.89 149.034 175.244 149.019 176.851 148.588ZM181.026 164.167C182.911 163.661 184.314 162.838 185.234 161.697C186.154 160.556 186.39 159.151 185.943 157.482C185.513 155.875 184.614 154.807 183.246 154.279C181.871 153.72 180.24 153.693 178.355 154.198C176.469 154.703 175.086 155.538 174.205 156.702C173.316 157.834 173.087 159.204 173.518 160.812C173.965 162.481 174.857 163.583 176.193 164.12C177.529 164.656 179.14 164.672 181.026 164.167Z" fill="#E60000"/>
</g>
<g filter="url(#filter1_d_2_1561)">
<path d="M82.5571 216.117L77.3488 220.047C80.7397 224.356 84.3069 228.767 87.4956 232.137C83.9267 236.621 81.6999 241.293 83.0665 246.393C85.2157 254.414 92.9124 255.134 102.139 252.662C108.166 251.047 112.944 249.22 116.699 247.469L115.015 240.814C111.137 242.847 105.077 245.266 100.348 246.533C93.9029 248.26 90.1853 247.368 89.2908 244.029C88.4212 240.784 90.3095 237.445 93.4744 233.864C97.007 229.986 100.772 226.79 103.308 224.57C104.754 223.289 106.026 222.103 107.286 220.871L102.899 216.182C101.908 217.491 100.787 218.686 99.3327 220.12C97.489 221.955 94.6444 224.506 91.794 227.407C88.9364 224.346 85.611 220.467 82.5571 216.117ZM104.765 209.421L101.5 211.886C103.236 213.359 105.406 215.709 106.843 217.362L110.176 214.779C108.835 213.3 106.371 210.78 104.765 209.421ZM109.711 205.81L106.458 208.321C108.182 209.748 110.386 212.039 111.881 213.726L115.168 211.156C113.899 209.756 111.388 207.249 109.711 205.81ZM152.332 220.031C154.27 227.264 147.87 233.054 136.72 237.433L141.598 242.288C154.016 237.072 161.544 228.446 158.885 218.524C156.934 211.245 150.67 208.451 143.344 210.414C137.92 211.867 133.087 214.603 129.914 216.298C128.471 217.033 126.564 217.892 125.025 218.453L128.563 224.611C129.771 223.741 131.381 222.515 132.626 221.783C134.804 220.454 138.972 217.648 144.072 216.281C148.43 215.114 151.512 216.971 152.332 220.031ZM128.147 202.659L128.711 208.471C134.291 207.97 144.601 206.201 150.125 205.118L149.524 199.167C144.597 200.438 133.836 202.377 128.147 202.659ZM182.793 188.315L176.156 189.696C176.522 190.691 176.771 191.618 177.215 193.834C177.408 194.926 177.605 196.215 177.851 197.689C174.392 198.318 170.753 198.647 167.828 198.487L168.932 203.906C171.878 203.961 175.319 203.635 178.605 203.102C178.933 205.251 179.238 207.505 179.519 209.666C176.419 210.149 173.176 210.471 169.889 210.258L171.067 215.955C173.711 215.992 176.908 215.683 180.379 215.1C180.703 217.051 181.011 218.757 181.309 219.87C183.384 227.613 189.375 229.387 196.655 227.436C206.808 224.715 211.772 218.018 209.896 211.017C208.84 207.076 206.521 204.17 202.417 201.095L196.253 204.238C200.083 206.292 202.594 208.8 203.438 211.953C204.457 215.755 201.728 219.666 195.237 221.405C190.694 222.623 187.782 221.216 186.751 217.368C186.528 216.534 186.31 215.35 186.03 213.934C186.633 213.772 187.282 213.598 187.884 213.437C190.805 212.654 193.445 211.748 195.979 210.821L194.64 205.266C191.726 206.445 188.344 207.549 185.47 208.32C185.377 208.344 185.238 208.382 185.145 208.407C184.818 206.258 184.512 204.004 184.244 201.89C187.953 200.896 190.453 200.027 193.161 199.004L191.868 193.437C189.776 194.345 186.883 195.418 183.557 196.359C183.332 194.779 183.182 193.478 183.11 192.652C182.973 191.397 182.823 190.096 182.793 188.315ZM60.4308 283.019L54.3662 284.495C54.6237 285.271 54.8292 286.409 55.0188 287.302C55.1373 288.115 55.2682 288.974 55.4115 289.88C54.8088 290.042 54.206 290.203 53.5569 290.377C50.7287 291.135 46.5492 291.857 44.8519 292.014L46.4321 297.355C48.6361 296.864 52.3022 296.08 54.7132 295.434C55.2232 295.298 55.6868 295.173 56.1969 295.037C56.5208 296.987 56.9034 298.972 57.3449 300.99C51.6738 305.79 48.4239 313.319 50.0265 319.3C51.2813 323.983 54.7025 325.253 58.0871 324.346C60.5444 323.688 62.803 322.287 64.7767 320.566C65.136 321.165 65.5418 321.752 65.8888 322.305L70.7859 319.254C70.1168 318.241 69.4353 317.181 68.8001 316.109C71.5412 312.244 73.9459 306.381 74.76 299.405C78.2946 299.8 80.5758 301.822 81.3212 304.604C82.5386 309.148 80.1397 314.66 71.4523 318.032L75.8168 322.08C86.7627 317.309 88.909 309.925 87.1449 303.342C85.7038 297.963 81.0032 294.701 75.1528 294.38C75.195 293.425 75.305 292.352 75.3538 291.792L69.3371 291.963C69.4771 292.671 69.6022 293.88 69.6652 294.857C69.387 294.931 69.1088 295.006 68.8306 295.08C66.5588 295.689 64.2348 296.66 62.1459 297.766C61.8196 296.363 61.5736 294.888 61.34 293.46C66.9807 291.7 73.0444 289.479 77.3645 287.427L75.8771 282.061C71.1 284.633 66.2541 286.577 60.6598 288.325C60.5504 287.36 60.5123 286.476 60.4401 285.651C60.4393 284.905 60.4011 284.021 60.4308 283.019ZM55.1745 316.629C54.4664 313.986 55.8404 309.841 58.6842 306.545C59.6341 309.719 60.8623 312.819 62.1425 315.557C60.7343 316.978 59.2142 317.982 57.916 318.329C56.4324 318.727 55.5721 318.113 55.1745 316.629ZM63.3146 302.869L63.2774 302.73C64.9365 301.689 66.9574 300.701 69.4023 299.996C68.8322 304.174 67.5037 307.561 65.9333 310.417C64.9412 308.198 64.0725 305.698 63.3146 302.869ZM100.561 272.366L94.1344 273.79C94.4699 275.042 94.8277 276.933 95.068 278.757C95.6985 283.707 96.5899 289.63 97.7452 293.942C98.5776 297.048 99.66 299.79 100.423 301.523L106.026 299.624C105.164 297.52 104.72 296.048 104.477 294.772C103.069 288.59 105.646 279.103 111.117 277.637C115.012 276.594 118.491 279.935 120.404 287.075C123.411 298.296 117.038 303.631 107.168 307.965L112.133 312.399C123.823 306.881 130.167 298.473 126.651 285.352C123.918 275.152 117.221 270.188 110.776 271.915C105.537 273.318 102.547 278.294 101.29 282.507C100.873 279.836 100.521 274.812 100.561 272.366ZM151.532 259.702L144.437 260.858C145.313 263.754 145.802 267.25 146.085 270.902C143.783 271.767 141.641 272.49 140.216 272.921C138.513 273.427 137.008 273.93 135.255 274.251L137.501 280.407C138.876 279.79 141.2 278.82 142.482 278.228C143.292 277.911 144.726 277.328 146.346 276.696C146.332 283.507 145.642 293.73 142.773 301.009L149.446 301.805C151.885 293.846 152.372 281.938 152.245 274.419C153.565 273.966 154.699 273.563 155.441 273.364C158.316 272.594 160.075 272.669 161.069 276.378C162.299 280.968 163.153 286.752 162.609 289.73C162.278 291.459 161.243 292.233 159.666 292.656C158.461 292.979 155.647 293.236 153.749 293.198L156.362 299.057C158.026 298.959 160.338 298.687 162.1 298.215C165.624 297.271 167.901 295.568 168.561 291.912C169.474 287.344 168.11 279.659 166.644 274.188C164.855 267.512 160.794 266.265 155.88 267.581C154.906 267.842 153.586 268.295 152.035 268.81C151.912 267.054 151.823 265.239 151.729 263.774C151.65 262.553 151.577 260.982 151.532 259.702ZM171.133 250.325L167.821 252.803C169.592 254.217 171.808 256.555 173.291 258.195L176.532 255.637C175.309 254.226 172.811 251.764 171.133 250.325ZM166.175 253.89L162.922 256.402C164.386 257.6 166.141 259.515 167.541 261.028L163.852 263.954C168.238 267.152 173.716 274.43 176.3 279.254L181.468 274.987C179.064 271.208 173.512 264.397 169.575 260.831L171.586 259.248C170.245 257.769 167.794 255.295 166.175 253.89ZM191.927 248.183L186.765 252.1C190.168 256.456 193.723 260.82 196.912 264.19C193.343 268.674 191.129 273.392 192.495 278.492C194.632 286.467 202.316 287.141 211.543 284.669C217.57 283.054 222.361 281.273 226.115 279.522L224.419 272.821C220.566 274.946 214.493 277.319 209.717 278.599C203.273 280.325 199.602 279.421 198.707 276.082C197.837 272.837 199.726 269.498 202.891 265.917C206.377 262.051 211.498 257.797 213.988 255.589C215.467 254.249 216.74 253.063 217.907 251.856L213.267 247.335C212.335 248.678 211.201 249.826 209.713 251.318C207.869 253.154 204.369 256.228 201.164 259.473C198.353 256.4 194.981 252.532 191.927 248.183ZM260.59 253.14C262.528 260.373 256.128 266.163 244.978 270.542L249.856 275.397C262.274 270.181 269.802 261.555 267.143 251.633C265.192 244.354 258.928 241.56 251.602 243.523C246.178 244.976 241.345 247.712 238.172 249.407C236.729 250.142 234.822 251.001 233.283 251.562L236.821 257.72C238.029 256.85 239.639 255.623 240.884 254.892C243.062 253.563 247.23 250.757 252.33 249.39C256.688 248.223 259.77 250.08 260.59 253.14ZM236.405 235.768L236.969 241.58C242.549 241.079 252.859 239.31 258.383 238.227L257.782 232.276C252.855 233.547 242.094 235.486 236.405 235.768Z" fill="#E60000"/>
</g>
<g filter="url(#filter2_d_2_1561)">
<rect x="230.805" y="239.991" width="101.805" height="107.163" fill="white"/>
<path d="M225 341.2C225 348.259 230.741 354 237.8 354H327.4C334.459 354 340.2 348.259 340.2 341.2V245.2C340.2 238.141 334.459 232.4 327.4 232.4H314.6C314.6 230.703 313.926 229.075 312.725 227.875C311.525 226.674 309.897 226 308.2 226H257C255.303 226 253.675 226.674 252.475 227.875C251.274 229.075 250.6 230.703 250.6 232.4H237.8C230.741 232.4 225 238.141 225 245.2V341.2ZM237.8 245.2H250.6V258H314.6V245.2H327.4V341.2H237.8V245.2Z" fill="black"/>
<path d="M297.269 279.088L282.6 293.757L267.931 279.088L258.881 288.138L273.55 302.806L258.881 317.475L267.931 326.525L282.6 311.856L297.269 326.525L306.318 317.475L291.649 302.806L306.318 288.138L297.269 279.088Z" fill="#EF2B10"/>
</g>
<g filter="url(#filter3_d_2_1561)">
<path d="M97.4589 46.1244C79.8827 50.834 69.4149 68.9648 74.1244 86.541C78.8339 104.117 96.9648 114.585 114.541 109.876C132.117 105.166 142.585 87.0351 137.876 69.459C133.166 51.8828 115.035 41.4149 97.4589 46.1244ZM80.4995 84.8328C79.7317 81.9672 79.4918 79.0831 79.6792 76.2759L86.0205 79.9371L94.1038 84.604L95.812 90.9791L103.895 95.646L107.937 97.9794L109.586 104.135C96.6077 105.921 83.9774 97.8125 80.4995 84.8328ZM130.339 88.1265C127.808 87.0075 124.356 86.747 122.167 87.3338L121.312 84.1462C120.859 82.4555 119.753 81.0139 118.237 80.1387C116.721 79.2635 114.92 79.0263 113.229 79.4793L100.479 82.8957L97.9166 73.3331C99.6074 72.88 101.049 71.7739 101.924 70.258C102.799 68.7421 103.037 66.9406 102.584 65.2498L101.729 62.0622L104.917 61.2081C106.608 60.7551 108.049 59.6489 108.925 58.133C109.8 56.6171 110.037 54.8156 109.584 53.1248L109.233 51.8147C119.582 53.1039 128.639 60.4889 131.5 71.1672C133.007 76.7924 132.599 82.7591 130.339 88.1265Z" fill="black"/>
</g>
</g>
<defs>
<filter id="filter0_d_2_1561" x="38.9972" y="123.992" width="165.29" height="89.2258" filterUnits="userSpaceOnUse" color-interpolation-filters="sRGB">
<feFlood flood-opacity="0" result="BackgroundImageFix"/>
<feColorMatrix in="SourceAlpha" type="matrix" values="0 0 0 0 0 0 0 0 0 0 0 0 0 0 0 0 0 0 127 0" result="hardAlpha"/>
<feOffset dy="1"/>
<feGaussianBlur stdDeviation="4"/>
<feComposite in2="hardAlpha" operator="out"/>
<feColorMatrix type="matrix" values="0 0 0 0 0 0 0 0 0 0 0 0 0 0 0 0 0 0 0.25 0"/>
<feBlend mode="normal" in2="BackgroundImageFix" result="effect1_dropShadow_2_1561"/>
<feBlend mode="normal" in="SourceGraphic" in2="effect1_dropShadow_2_1561" result="shape"/>
</filter>
<filter id="filter1_d_2_1561" x="17.652" y="162.521" width="262.299" height="174.866" filterUnits="userSpaceOnUse" color-interpolation-filters="sRGB">
<feFlood flood-opacity="0" result="BackgroundImageFix"/>
<feColorMatrix in="SourceAlpha" type="matrix" values="0 0 0 0 0 0 0 0 0 0 0 0 0 0 0 0 0 0 127 0" result="hardAlpha"/>
<feOffset dy="1"/>
<feGaussianBlur stdDeviation="4"/>
<feComposite in2="hardAlpha" operator="out"/>
<feColorMatrix type="matrix" values="0 0 0 0 0 0 0 0 0 0 0 0 0 0 0 0 0 0 0.25 0"/>
<feBlend mode="normal" in2="BackgroundImageFix" result="effect1_dropShadow_2_1561"/>
<feBlend mode="normal" in="SourceGraphic" in2="effect1_dropShadow_2_1561" result="shape"/>
</filter>
<filter id="filter2_d_2_1561" x="217" y="219" width="131.2" height="144" filterUnits="userSpaceOnUse" color-interpolation-filters="sRGB">
<feFlood flood-opacity="0" result="BackgroundImageFix"/>
<feColorMatrix in="SourceAlpha" type="matrix" values="0 0 0 0 0 0 0 0 0 0 0 0 0 0 0 0 0 0 127 0" result="hardAlpha"/>
<feOffset dy="1"/>
<feGaussianBlur stdDeviation="4"/>
<feComposite in2="hardAlpha" operator="out"/>
<feColorMatrix type="matrix" values="0 0 0 0 0 0 0 0 0 0 0 0 0 0 0 0 0 0 0.25 0"/>
<feBlend mode="normal" in2="BackgroundImageFix" result="effect1_dropShadow_2_1561"/>
<feBlend mode="normal" in="SourceGraphic" in2="effect1_dropShadow_2_1561" result="shape"/>
</filter>
<filter id="filter3_d_2_1561" x="64.9962" y="37.9962" width="82.0074" height="82.0075" filterUnits="userSpaceOnUse" color-interpolation-filters="sRGB">
<feFlood flood-opacity="0" result="BackgroundImageFix"/>
<feColorMatrix in="SourceAlpha" type="matrix" values="0 0 0 0 0 0 0 0 0 0 0 0 0 0 0 0 0 0 127 0" result="hardAlpha"/>
<feOffset dy="1"/>
<feGaussianBlur stdDeviation="4"/>
<feComposite in2="hardAlpha" operator="out"/>
<feColorMatrix type="matrix" values="0 0 0 0 0 0 0 0 0 0 0 0 0 0 0 0 0 0 0.25 0"/>
<feBlend mode="normal" in2="BackgroundImageFix" result="effect1_dropShadow_2_1561"/>
<feBlend mode="normal" in="SourceGraphic" in2="effect1_dropShadow_2_1561" result="shape"/>
</filter>
</defs>
</svg>
