<svg width="352" height="370" viewBox="0 0 352 370" fill="none" xmlns="http://www.w3.org/2000/svg">
<mask id="mask0_2_1516" style="mask-type:alpha" maskUnits="userSpaceOnUse" x="0" y="0" width="352" height="370">
<rect width="352" height="370" fill="white"/>
</mask>
<g mask="url(#mask0_2_1516)">
<rect width="352" height="370" fill="white"/>
<g filter="url(#filter0_d_2_1516)">
<path d="M36.3157 199.405L24.4142 154.988L36.7008 151.695L38.3531 157.862L33.2066 159.241L41.8036 191.325L46.95 189.946L48.6023 196.112L36.3157 199.405ZM56.4292 184.971L49.1242 157.709L42.4941 159.485L40.73 152.902L54.9175 149.1L63.9866 182.946L56.4292 184.971ZM76.2524 188.157L69.9533 187.46L71.02 171.968L77.9468 172.596L76.2524 188.157ZM93.295 175.093L91.4315 168.138C90.8518 165.975 90.9165 164.052 91.6256 162.372C92.3657 160.682 93.8848 158.934 96.1831 157.125L101.02 153.295C102.223 152.343 103.049 151.343 103.497 150.296C103.945 149.248 103.991 148.06 103.635 146.73C103.27 145.37 102.539 144.374 101.442 143.74C100.375 143.098 99.054 142.988 97.4776 143.411C95.8703 143.842 94.7695 144.617 94.1751 145.737C93.5807 146.857 93.4865 148.174 93.8923 149.689L86.5203 151.664C85.9489 149.531 85.899 147.491 86.3708 145.542C86.8426 143.594 87.8578 141.88 89.4164 140.403C90.9668 138.894 93.0865 137.779 95.7756 137.059C98.4339 136.347 100.803 136.225 102.884 136.695C104.964 137.164 106.687 138.094 108.054 139.484C109.442 140.834 110.402 142.499 110.932 144.477L111.081 145.033C111.777 147.63 111.641 149.968 110.675 152.049C109.709 154.13 107.912 156.202 105.284 158.265L100.493 162.083C99.6734 162.733 99.1248 163.344 98.8472 163.915C98.5922 164.447 98.56 165.069 98.7505 165.78L98.9617 166.568L115.699 162.083L117.451 168.62L93.295 175.093ZM127.96 174.302L121.661 173.605L122.727 158.113L129.654 158.741L127.96 174.302ZM156.829 159.013C154.171 159.725 151.755 159.859 149.582 159.414C147.401 158.939 145.577 158.003 144.109 156.607C142.642 155.212 141.627 153.463 141.064 151.361L148.389 149.398C148.77 150.82 149.56 151.851 150.758 152.49C151.948 153.099 153.409 153.171 155.14 152.708C156.84 152.252 158.045 151.432 158.754 150.248C159.464 149.064 159.62 147.73 159.223 146.247C158.825 144.763 158.019 143.67 156.804 142.969C155.589 142.268 154.132 142.145 152.432 142.6C151.504 142.849 150.722 143.207 150.086 143.676C149.481 144.136 148.984 144.634 148.598 145.168L143.614 140.292L152.071 130.87L151.443 130.193L137.858 133.833L136.119 127.342L158.93 121.23L160.818 128.277L153.009 136.78C156.438 136.226 159.36 136.619 161.773 137.96C164.209 139.262 165.808 141.335 166.57 144.179L166.719 144.735C167.274 146.806 167.245 148.801 166.633 150.721C166.052 152.633 164.932 154.324 163.272 155.796C161.604 157.237 159.457 158.309 156.829 159.013ZM179.667 160.447L173.368 159.75L174.434 144.258L181.361 144.886L179.667 160.447ZM268.762 199.237L256.86 154.82L244.574 158.113L246.226 164.279L251.372 162.9L259.969 194.984L254.823 196.363L256.475 202.53L268.762 199.237Z" fill="black"/>
<path d="M194.484 147.979L198.495 133.09L187.954 122.497L195.975 120.348L202.876 127.742L203.618 127.543L205.619 117.764L213.176 115.739L209.758 129.873L221.422 140.761L213.354 142.923L205.411 135.163L204.669 135.361L201.995 145.967L194.484 147.979ZM225.575 139.649L216.506 105.802L236.814 100.361L238.503 106.667L225.8 110.071L227.837 117.674L239.985 114.419L241.674 120.725L229.527 123.98L233.179 137.611L225.575 139.649ZM251.519 132.697L242.45 98.8508L262.758 93.4093L264.448 99.7149L251.744 103.119L253.781 110.723L265.929 107.468L267.618 113.773L255.471 117.028L259.123 130.659L251.519 132.697ZM278.508 133.963L272.209 133.265L273.276 117.773L280.203 118.402L278.508 133.963ZM74.2477 242.313L78.2587 227.424L67.7179 216.831L75.739 214.682L82.6398 222.076L83.3816 221.877L85.3828 212.098L92.9402 210.073L89.5219 224.207L101.185 235.095L93.118 237.257L85.1748 229.496L84.433 229.695L81.7588 240.301L74.2477 242.313ZM105.339 233.982L96.27 200.136L116.578 194.695L118.267 201L105.563 204.404L107.601 212.008L119.748 208.753L121.438 215.059L109.29 218.314L112.943 231.945L105.339 233.982ZM131.283 227.031L122.214 193.185L142.522 187.743L144.211 194.049L131.508 197.453L133.545 205.056L145.692 201.802L147.382 208.107L135.235 211.362L138.887 224.993L131.283 227.031ZM158.272 228.297L151.973 227.599L153.04 212.107L159.966 212.736L158.272 228.297ZM173.089 215.829L177.1 200.939L166.559 190.346L174.58 188.197L181.481 195.591L182.223 195.392L184.224 185.613L191.782 183.588L188.363 197.723L200.027 208.611L191.959 210.772L184.016 203.012L183.274 203.211L180.6 213.816L173.089 215.829ZM204.18 207.498L195.111 173.652L215.419 168.21L217.109 174.516L204.405 177.92L206.442 185.524L218.59 182.269L220.279 188.574L208.132 191.829L211.784 205.46L204.18 207.498ZM230.125 200.546L221.056 166.7L241.363 161.259L243.053 167.564L230.349 170.968L232.386 178.572L244.534 175.317L246.223 181.623L234.076 184.878L237.728 198.509L230.125 200.546Z" fill="#E60000"/>
</g>
<g filter="url(#filter1_d_2_1516)">
<rect x="230.805" y="239.991" width="101.805" height="107.163" fill="white"/>
<path d="M225 341.2C225 348.259 230.741 354 237.8 354H327.4C334.459 354 340.2 348.259 340.2 341.2V245.2C340.2 238.141 334.459 232.4 327.4 232.4H314.6C314.6 230.703 313.926 229.075 312.725 227.875C311.525 226.674 309.897 226 308.2 226H257C255.303 226 253.675 226.674 252.475 227.875C251.274 229.075 250.6 230.703 250.6 232.4H237.8C230.741 232.4 225 238.141 225 245.2V341.2ZM237.8 245.2H250.6V258H314.6V245.2H327.4V341.2H237.8V245.2Z" fill="black"/>
<path d="M297.269 279.088L282.6 293.757L267.931 279.088L258.881 288.138L273.55 302.806L258.881 317.475L267.931 326.525L282.6 311.856L297.269 326.525L306.318 317.475L291.649 302.806L306.318 288.138L297.269 279.088Z" fill="#EF2B10"/>
</g>
<g filter="url(#filter2_d_2_1516)">
<path d="M106.177 73.7913L131.592 108.799C133.344 111.213 136.732 111.751 139.145 109.998L165.401 90.937C167.815 89.1849 168.352 85.7974 166.6 83.3841L147.539 57.128C147.33 56.8404 147.067 56.5969 146.765 56.4113C146.462 56.2257 146.125 56.1017 145.775 56.0465L126.892 53.0488C126.542 52.9925 126.183 53.0061 125.838 53.0888C125.493 53.1715 125.167 53.3217 124.88 53.5307L107.376 66.2384C104.963 67.9905 104.425 71.378 106.177 73.7913ZM143.82 61.2108L162.226 86.5594L135.968 105.622L110.553 70.6144L127.151 58.5644L143.82 61.2108Z" fill="black"/>
</g>
<path d="M118.106 71.8135L122.482 68.6366L128.836 77.3886L124.46 80.5655L118.106 71.8135ZM126.858 65.4597L131.234 62.2828L137.588 71.0348L133.212 74.2117L126.858 65.4597Z" fill="black"/>
</g>
<defs>
<filter id="filter0_d_2_1516" x="16.4142" y="81.5897" width="291.231" height="184.771" filterUnits="userSpaceOnUse" color-interpolation-filters="sRGB">
<feFlood flood-opacity="0" result="BackgroundImageFix"/>
<feColorMatrix in="SourceAlpha" type="matrix" values="0 0 0 0 0 0 0 0 0 0 0 0 0 0 0 0 0 0 127 0" result="hardAlpha"/>
<feOffset dy="1"/>
<feGaussianBlur stdDeviation="4"/>
<feComposite in2="hardAlpha" operator="out"/>
<feColorMatrix type="matrix" values="0 0 0 0 0 0 0 0 0 0 0 0 0 0 0 0 0 0 0.25 0"/>
<feBlend mode="normal" in2="BackgroundImageFix" result="effect1_dropShadow_2_1516"/>
<feBlend mode="normal" in="SourceGraphic" in2="effect1_dropShadow_2_1516" result="shape"/>
</filter>
<filter id="filter1_d_2_1516" x="217" y="219" width="131.2" height="144" filterUnits="userSpaceOnUse" color-interpolation-filters="sRGB">
<feFlood flood-opacity="0" result="BackgroundImageFix"/>
<feColorMatrix in="SourceAlpha" type="matrix" values="0 0 0 0 0 0 0 0 0 0 0 0 0 0 0 0 0 0 127 0" result="hardAlpha"/>
<feOffset dy="1"/>
<feGaussianBlur stdDeviation="4"/>
<feComposite in2="hardAlpha" operator="out"/>
<feColorMatrix type="matrix" values="0 0 0 0 0 0 0 0 0 0 0 0 0 0 0 0 0 0 0.25 0"/>
<feBlend mode="normal" in2="BackgroundImageFix" result="effect1_dropShadow_2_1516"/>
<feBlend mode="normal" in="SourceGraphic" in2="effect1_dropShadow_2_1516" result="shape"/>
</filter>
<filter id="filter2_d_2_1516" x="97.147" y="46.0147" width="78.4833" height="74.0137" filterUnits="userSpaceOnUse" color-interpolation-filters="sRGB">
<feFlood flood-opacity="0" result="BackgroundImageFix"/>
<feColorMatrix in="SourceAlpha" type="matrix" values="0 0 0 0 0 0 0 0 0 0 0 0 0 0 0 0 0 0 127 0" result="hardAlpha"/>
<feOffset dy="1"/>
<feGaussianBlur stdDeviation="4"/>
<feComposite in2="hardAlpha" operator="out"/>
<feColorMatrix type="matrix" values="0 0 0 0 0 0 0 0 0 0 0 0 0 0 0 0 0 0 0.25 0"/>
<feBlend mode="normal" in2="BackgroundImageFix" result="effect1_dropShadow_2_1516"/>
<feBlend mode="normal" in="SourceGraphic" in2="effect1_dropShadow_2_1516" result="shape"/>
</filter>
</defs>
</svg>
