<svg width="352" height="370" viewBox="0 0 352 370" fill="none" xmlns="http://www.w3.org/2000/svg">
<mask id="mask0_2_1530" style="mask-type:alpha" maskUnits="userSpaceOnUse" x="0" y="0" width="352" height="370">
<rect width="352" height="370" fill="white"/>
</mask>
<g mask="url(#mask0_2_1530)">
<rect width="352" height="370" fill="white"/>
<g filter="url(#filter0_d_2_1530)">
<path d="M47.2672 207.949L45.5031 201.366L65.0226 196.135L66.7867 202.719L47.2672 207.949ZM73.7023 207.426L72.0252 201.166L86.5434 192.108L86.3446 191.366L69.2423 190.781L67.5279 184.382L90.4715 185.44L93.0431 195.038L73.7023 207.426ZM112.607 200.977L103.538 167.131L116.01 163.789L136.177 188.052L136.826 187.878L129.409 160.198L136.549 158.285L145.618 192.131L133.053 195.498L112.886 171.235L112.237 171.409L119.654 199.088L112.607 200.977ZM161.592 188.696C158.656 189.483 156.147 189.144 154.065 187.681C151.984 186.218 150.425 183.555 149.39 179.691L145.439 164.947L152.858 162.96L156.908 178.074C157.272 179.434 157.948 180.413 158.936 181.009C159.924 181.606 161.068 181.73 162.366 181.382C163.695 181.026 164.665 180.319 165.276 179.261C165.887 178.203 166.002 176.963 165.621 175.541L161.62 160.612L169.039 158.624L175.847 184.032L169.958 185.609L168.368 179.675C168.518 184.438 166.368 187.416 161.917 188.609L161.592 188.696ZM183.011 182.112L175.408 153.737L172.395 154.544L170.929 149.073L181.407 146.266L190.476 180.112L183.011 182.112ZM197.636 178.193L190.033 149.818L187.019 150.626L185.553 145.155L196.032 142.347L205.101 176.193L197.636 178.193ZM214.421 183.634L205.128 148.954L211.017 147.376L212.744 153.821C212.856 151.273 213.616 149.164 215.024 147.495C216.455 145.786 218.344 144.617 220.694 143.988C223.043 143.358 225.236 143.384 227.273 144.063C229.333 144.704 231.103 145.87 232.583 147.56C234.094 149.243 235.177 151.305 235.831 153.747L236.117 154.813C236.771 157.255 236.9 159.589 236.502 161.816C236.105 164.042 235.194 165.959 233.77 167.567C232.345 169.174 230.397 170.309 227.924 170.972C226.193 171.436 224.514 171.538 222.887 171.278C221.261 171.018 219.806 170.348 218.522 169.267L221.839 181.647L214.421 183.634ZM224.173 165.318C226.058 164.813 227.391 163.727 228.17 162.061C228.98 160.386 229.091 158.451 228.503 156.257C227.923 154.093 226.868 152.504 225.337 151.49C223.838 150.467 222.145 150.208 220.259 150.713C219.116 151.02 218.12 151.568 217.271 152.359C216.454 153.141 215.869 154.109 215.516 155.264C215.193 156.411 215.214 157.664 215.579 159.024L216.039 160.739C216.395 162.069 217.01 163.129 217.885 163.922C218.783 164.675 219.792 165.167 220.914 165.396C222.036 165.626 223.122 165.6 224.173 165.318ZM256.168 162.857C253.603 163.545 251.449 163.791 249.707 163.595C247.956 163.368 246.512 162.612 245.372 161.327C244.255 160.003 243.353 158.059 242.666 155.493L239.97 145.432L236.122 146.463L234.668 141.038L238.517 140.007L236.678 133.145L243.586 131.294L245.425 138.156L252.843 136.168L254.297 141.593L246.878 143.581L249.649 153.92C249.972 155.126 250.529 155.97 251.321 156.454C252.136 156.898 253.131 156.963 254.305 156.648L258.061 155.642L259.738 161.901L256.168 162.857ZM264.64 160.24L257.832 134.832L263.72 133.254L266.031 141.878C265.539 138.929 265.827 136.483 266.897 134.54C267.997 132.588 269.846 131.265 272.442 130.569L273.416 130.308L275.13 136.706L273.276 137.203C271.205 137.758 269.762 138.741 268.947 140.152C268.164 141.555 268.045 143.276 268.592 145.316L272.058 158.252L264.64 160.24Z" fill="#E60000"/>
</g>
<g filter="url(#filter1_d_2_1530)">
<rect x="230.805" y="239.991" width="101.805" height="107.163" fill="white"/>
<path d="M225 341.2C225 348.259 230.741 354 237.8 354H327.4C334.459 354 340.2 348.259 340.2 341.2V245.2C340.2 238.141 334.459 232.4 327.4 232.4H314.6C314.6 230.703 313.926 229.075 312.725 227.875C311.525 226.674 309.897 226 308.2 226H257C255.303 226 253.675 226.674 252.475 227.875C251.274 229.075 250.6 230.703 250.6 232.4H237.8C230.741 232.4 225 238.141 225 245.2V341.2ZM237.8 245.2H250.6V258H314.6V245.2H327.4V341.2H237.8V245.2Z" fill="black"/>
<path d="M297.269 279.088L282.6 293.757L267.931 279.088L258.881 288.138L273.55 302.806L258.881 317.475L267.931 326.525L282.6 311.856L297.269 326.525L306.318 317.475L291.649 302.806L306.318 288.138L297.269 279.088Z" fill="#EF2B10"/>
</g>
<g filter="url(#filter2_d_2_1530)">
<path d="M178.624 81.9222L154.664 73.817C154.227 73.6692 153.756 73.6541 153.31 73.7735C152.864 73.893 152.464 74.1416 152.159 74.4882L135.462 93.4873C135.207 93.7764 135.028 94.1238 134.94 94.4987C134.853 94.8737 134.859 95.2645 134.958 95.6365L141.615 120.482C142.283 122.974 144.852 124.457 147.343 123.789L183.483 114.106C185.974 113.438 187.457 110.869 186.79 108.378L180.132 83.5322C179.93 82.7777 179.364 82.1741 178.624 81.9222ZM154.641 78.7471L173.801 85.2286L160.449 100.422L141.289 93.9401L154.641 78.7471ZM146.133 119.272L140.607 98.6476L160.426 105.352C160.864 105.5 161.336 105.515 161.782 105.396C162.228 105.276 162.629 105.027 162.934 104.68L176.746 88.9641L182.265 109.59L146.133 119.272Z" fill="black"/>
</g>
</g>
<defs>
<filter id="filter0_d_2_1530" x="32.832" y="115.194" width="257.963" height="120.857" filterUnits="userSpaceOnUse" color-interpolation-filters="sRGB">
<feFlood flood-opacity="0" result="BackgroundImageFix"/>
<feColorMatrix in="SourceAlpha" type="matrix" values="0 0 0 0 0 0 0 0 0 0 0 0 0 0 0 0 0 0 127 0" result="hardAlpha"/>
<feOffset dy="1"/>
<feGaussianBlur stdDeviation="4"/>
<feComposite in2="hardAlpha" operator="out"/>
<feColorMatrix type="matrix" values="0 0 0 0 0 0 0 0 0 0 0 0 0 0 0 0 0 0 0.25 0"/>
<feBlend mode="normal" in2="BackgroundImageFix" result="effect1_dropShadow_2_1530"/>
<feBlend mode="normal" in="SourceGraphic" in2="effect1_dropShadow_2_1530" result="shape"/>
</filter>
<filter id="filter1_d_2_1530" x="217" y="219" width="131.2" height="144" filterUnits="userSpaceOnUse" color-interpolation-filters="sRGB">
<feFlood flood-opacity="0" result="BackgroundImageFix"/>
<feColorMatrix in="SourceAlpha" type="matrix" values="0 0 0 0 0 0 0 0 0 0 0 0 0 0 0 0 0 0 127 0" result="hardAlpha"/>
<feOffset dy="1"/>
<feGaussianBlur stdDeviation="4"/>
<feComposite in2="hardAlpha" operator="out"/>
<feColorMatrix type="matrix" values="0 0 0 0 0 0 0 0 0 0 0 0 0 0 0 0 0 0 0.25 0"/>
<feBlend mode="normal" in2="BackgroundImageFix" result="effect1_dropShadow_2_1530"/>
<feBlend mode="normal" in="SourceGraphic" in2="effect1_dropShadow_2_1530" result="shape"/>
</filter>
<filter id="filter2_d_2_1530" x="126.879" y="66.6938" width="68.0708" height="66.2553" filterUnits="userSpaceOnUse" color-interpolation-filters="sRGB">
<feFlood flood-opacity="0" result="BackgroundImageFix"/>
<feColorMatrix in="SourceAlpha" type="matrix" values="0 0 0 0 0 0 0 0 0 0 0 0 0 0 0 0 0 0 127 0" result="hardAlpha"/>
<feOffset dy="1"/>
<feGaussianBlur stdDeviation="4"/>
<feComposite in2="hardAlpha" operator="out"/>
<feColorMatrix type="matrix" values="0 0 0 0 0 0 0 0 0 0 0 0 0 0 0 0 0 0 0.25 0"/>
<feBlend mode="normal" in2="BackgroundImageFix" result="effect1_dropShadow_2_1530"/>
<feBlend mode="normal" in="SourceGraphic" in2="effect1_dropShadow_2_1530" result="shape"/>
</filter>
</defs>
</svg>
