<svg width="352" height="370" viewBox="0 0 352 370" fill="none" xmlns="http://www.w3.org/2000/svg">
<mask id="mask0_2_1118" style="mask-type:alpha" maskUnits="userSpaceOnUse" x="0" y="0" width="352" height="370">
<rect width="352" height="370" fill="white"/>
</mask>
<g mask="url(#mask0_2_1118)">
<rect width="352" height="370" fill="white"/>
<g filter="url(#filter0_d_2_1118)">
<rect x="48" y="46" width="235" height="288" rx="15" fill="#EBEBEB"/>
</g>
<rect x="72.1718" y="64.1181" width="184.475" height="18.118" rx="9.05902" fill="#D7D6D6"/>
<rect x="65.5835" y="130.825" width="200.945" height="9.88257" rx="4.94128" fill="#D7D7D7"/>
<rect x="65.5835" y="152.238" width="200.945" height="9.88257" rx="4.94128" fill="#D7D7D7"/>
<rect x="66" y="182" width="138" height="10" rx="5" fill="#D7D7D7"/>
<rect x="65.5835" y="216.474" width="114.473" height="9.88257" rx="4.94128" fill="#D7D7D7"/>
<rect x="222.881" y="216.474" width="43.648" height="9.88257" rx="4.94128" fill="#CF5544"/>
<rect x="66" y="308" width="92" height="10" rx="5" fill="#D7D7D7"/>
<rect x="66" y="293" width="121" height="10" rx="5" fill="#B7B7B7"/>
<path d="M223 35H265V105L244 81.5L223 105V35Z" fill="#F3C140"/>
<rect x="80.5" y="113.5" width="264" height="57" rx="7.5" fill="black" stroke="#B1B1B1" stroke-width="5"/>
<path d="M181.668 153.096V150C179.892 149.76 178.556 149.16 177.66 148.2C176.764 147.24 176.316 146.008 176.316 144.504H179.844C179.844 145.192 180.124 145.792 180.684 146.304C181.244 146.8 182.14 147.048 183.372 147.048C184.46 147.048 185.292 146.856 185.868 146.472C186.46 146.088 186.756 145.576 186.756 144.936C186.756 144.376 186.508 143.92 186.012 143.568C185.516 143.2 184.724 142.96 183.636 142.848L182.412 142.752C180.7 142.592 179.34 142.08 178.332 141.216C177.324 140.336 176.82 139.096 176.82 137.496C176.82 136.056 177.236 134.928 178.068 134.112C178.916 133.28 180.084 132.768 181.572 132.576V130.152H184.716V132.6C186.236 132.856 187.396 133.448 188.196 134.376C189.012 135.288 189.42 136.488 189.42 137.976H185.892C185.892 137.304 185.644 136.728 185.148 136.248C184.668 135.768 183.964 135.528 183.036 135.528C182.188 135.528 181.532 135.712 181.068 136.08C180.604 136.432 180.372 136.904 180.372 137.496C180.372 137.992 180.556 138.44 180.924 138.84C181.292 139.24 181.9 139.48 182.748 139.56L183.972 139.656C185.876 139.832 187.404 140.36 188.556 141.24C189.724 142.104 190.308 143.336 190.308 144.936C190.308 146.408 189.828 147.584 188.868 148.464C187.924 149.328 186.572 149.848 184.812 150.024V153.096H181.668ZM200.396 150V135.888H196.964V132.48H204.308V150H200.396ZM207.878 150V146.4C207.878 145.28 208.158 144.36 208.718 143.64C209.294 142.92 210.254 142.272 211.598 141.696L214.43 140.472C215.134 140.168 215.662 139.792 216.014 139.344C216.366 138.896 216.542 138.328 216.542 137.64C216.542 136.936 216.318 136.36 215.87 135.912C215.438 135.464 214.814 135.24 213.998 135.24C213.166 135.24 212.534 135.472 212.102 135.936C211.67 136.4 211.454 137.024 211.454 137.808H207.638C207.638 136.704 207.878 135.712 208.358 134.832C208.838 133.952 209.55 133.256 210.494 132.744C211.438 132.216 212.606 131.952 213.998 131.952C215.374 131.952 216.534 132.2 217.478 132.696C218.422 133.192 219.134 133.864 219.614 134.712C220.11 135.544 220.358 136.472 220.358 137.496V137.784C220.358 139.128 219.99 140.24 219.254 141.12C218.518 142 217.382 142.768 215.846 143.424L213.038 144.648C212.558 144.856 212.214 145.08 212.006 145.32C211.814 145.544 211.718 145.84 211.718 146.208V146.616H220.382V150H207.878ZM229.042 150.456C227.666 150.456 226.482 150.208 225.49 149.712C224.498 149.2 223.738 148.512 223.21 147.648C222.682 146.784 222.418 145.808 222.418 144.72H226.21C226.21 145.456 226.458 146.056 226.954 146.52C227.45 146.968 228.146 147.192 229.042 147.192C229.922 147.192 230.61 146.952 231.106 146.472C231.602 145.992 231.85 145.368 231.85 144.6C231.85 143.832 231.602 143.2 231.106 142.704C230.61 142.208 229.922 141.96 229.042 141.96C228.562 141.96 228.138 142.032 227.77 142.176C227.418 142.32 227.114 142.496 226.858 142.704L225.082 139.704L230.386 136.248L230.17 135.84H223.138V132.48H234.946V136.128L230.074 139.224C231.802 139.4 233.162 139.968 234.154 140.928C235.162 141.872 235.666 143.08 235.666 144.552V144.84C235.666 145.912 235.394 146.872 234.85 147.72C234.322 148.568 233.562 149.24 232.57 149.736C231.578 150.216 230.402 150.456 229.042 150.456ZM242.597 146.64V142.536L249.245 131.976L252.293 133.968L246.605 143.016L246.941 143.52H251.789V137.376H255.413V143.52H257.429V146.64H255.413V150H251.789V146.64H242.597ZM265.754 150.456C264.362 150.456 263.162 150.192 262.154 149.664C261.146 149.12 260.37 148.392 259.826 147.48C259.298 146.568 259.034 145.56 259.034 144.456H262.826C262.826 145.288 263.098 145.952 263.642 146.448C264.202 146.944 264.914 147.192 265.778 147.192C266.722 147.192 267.458 146.912 267.986 146.352C268.514 145.776 268.778 145.048 268.778 144.168C268.778 143.304 268.514 142.576 267.986 141.984C267.474 141.392 266.754 141.096 265.826 141.096C265.25 141.096 264.73 141.216 264.266 141.456C263.802 141.696 263.458 142 263.234 142.368H259.538L260.426 132.48H271.058V135.84H263.402L263.09 139.272C263.506 138.968 263.986 138.72 264.53 138.528C265.074 138.336 265.722 138.24 266.474 138.24C267.738 138.24 268.826 138.504 269.738 139.032C270.65 139.544 271.346 140.24 271.826 141.12C272.322 141.984 272.57 142.952 272.57 144.024V144.336C272.57 145.408 272.306 146.416 271.778 147.36C271.25 148.288 270.474 149.04 269.45 149.616C268.442 150.176 267.21 150.456 265.754 150.456ZM281.991 150.504C280.263 150.504 278.855 150.136 277.767 149.4C276.695 148.648 275.911 147.64 275.415 146.376C274.919 145.096 274.671 143.688 274.671 142.152V141.144C274.671 138.232 275.415 136.04 276.903 134.568C278.391 133.08 280.583 132.336 283.479 132.336C284.071 132.336 284.655 132.352 285.231 132.384C285.807 132.416 286.367 132.464 286.911 132.528V135.816C286.383 135.768 285.815 135.728 285.207 135.696C284.599 135.648 283.975 135.624 283.335 135.624C281.543 135.624 280.279 136.032 279.543 136.848C278.807 137.664 278.399 138.872 278.319 140.472C278.799 139.752 279.439 139.208 280.239 138.84C281.039 138.472 281.959 138.288 282.999 138.288C284.231 138.288 285.295 138.536 286.191 139.032C287.087 139.512 287.775 140.2 288.255 141.096C288.735 141.976 288.975 143.008 288.975 144.192C288.975 145.456 288.687 146.568 288.111 147.528C287.535 148.472 286.719 149.208 285.663 149.736C284.623 150.248 283.399 150.504 281.991 150.504ZM281.871 147.24C282.927 147.24 283.743 146.968 284.319 146.424C284.895 145.88 285.183 145.16 285.183 144.264C285.183 143.368 284.895 142.648 284.319 142.104C283.759 141.56 282.975 141.288 281.967 141.288C281.039 141.288 280.239 141.536 279.567 142.032C278.895 142.528 278.559 143.272 278.559 144.264C278.559 145.128 278.839 145.84 279.399 146.4C279.959 146.96 280.783 147.24 281.871 147.24ZM304.059 150.456C302.667 150.456 301.475 150.232 300.483 149.784C299.491 149.336 298.683 148.712 298.059 147.912C297.435 147.112 296.979 146.2 296.691 145.176C296.403 144.152 296.259 143.064 296.259 141.912V140.544C296.259 138.96 296.539 137.52 297.099 136.224C297.659 134.912 298.515 133.872 299.667 133.104C300.819 132.336 302.283 131.952 304.059 131.952C305.835 131.952 307.291 132.336 308.427 133.104C309.579 133.872 310.435 134.912 310.995 136.224C311.555 137.52 311.835 138.96 311.835 140.544V141.912C311.835 143.064 311.683 144.152 311.379 145.176C311.091 146.2 310.635 147.112 310.011 147.912C309.403 148.712 308.603 149.336 307.611 149.784C306.635 150.232 305.451 150.456 304.059 150.456ZM304.059 146.832C305.355 146.832 306.315 146.384 306.939 145.488C307.579 144.576 307.899 143.168 307.899 141.264C307.899 139.248 307.571 137.8 306.915 136.92C306.275 136.024 305.323 135.576 304.059 135.576C302.779 135.576 301.811 136.016 301.155 136.896C300.515 137.776 300.195 139.216 300.195 141.216C300.195 143.152 300.507 144.576 301.131 145.488C301.771 146.384 302.747 146.832 304.059 146.832ZM322.363 150.456C320.971 150.456 319.779 150.232 318.787 149.784C317.795 149.336 316.987 148.712 316.363 147.912C315.739 147.112 315.283 146.2 314.995 145.176C314.707 144.152 314.563 143.064 314.563 141.912V140.544C314.563 138.96 314.843 137.52 315.403 136.224C315.963 134.912 316.819 133.872 317.971 133.104C319.123 132.336 320.587 131.952 322.363 131.952C324.139 131.952 325.595 132.336 326.731 133.104C327.883 133.872 328.739 134.912 329.299 136.224C329.859 137.52 330.139 138.96 330.139 140.544V141.912C330.139 143.064 329.987 144.152 329.683 145.176C329.395 146.2 328.939 147.112 328.315 147.912C327.707 148.712 326.907 149.336 325.915 149.784C324.939 150.232 323.755 150.456 322.363 150.456ZM322.363 146.832C323.659 146.832 324.619 146.384 325.243 145.488C325.883 144.576 326.203 143.168 326.203 141.264C326.203 139.248 325.875 137.8 325.219 136.92C324.579 136.024 323.627 135.576 322.363 135.576C321.083 135.576 320.115 136.016 319.459 136.896C318.819 137.776 318.499 139.216 318.499 141.216C318.499 143.152 318.811 144.576 319.435 145.488C320.075 146.384 321.051 146.832 322.363 146.832Z" fill="#1CEC18"/>
<g filter="url(#filter1_d_2_1118)">
<rect x="210" y="242" width="105" height="105" rx="25" fill="#F1F1F1"/>
</g>
<g filter="url(#filter2_d_2_1118)">
<path d="M245.703 317.192V311C242.151 310.52 239.479 309.32 237.687 307.4C235.895 305.48 234.999 303.016 234.999 300.008H242.055C242.055 301.384 242.615 302.584 243.735 303.608C244.855 304.6 246.647 305.096 249.111 305.096C251.287 305.096 252.951 304.712 254.103 303.944C255.287 303.176 255.879 302.152 255.879 300.872C255.879 299.752 255.383 298.84 254.391 298.136C253.399 297.4 251.815 296.92 249.639 296.696L247.191 296.504C243.767 296.184 241.047 295.16 239.031 293.432C237.015 291.672 236.007 289.192 236.007 285.992C236.007 283.112 236.839 280.856 238.503 279.224C240.199 277.56 242.535 276.536 245.511 276.152V271.304H251.799V276.2C254.839 276.712 257.159 277.896 258.759 279.752C260.391 281.576 261.207 283.976 261.207 286.952H254.151C254.151 285.608 253.655 284.456 252.663 283.496C251.703 282.536 250.295 282.056 248.439 282.056C246.743 282.056 245.431 282.424 244.503 283.16C243.575 283.864 243.111 284.808 243.111 285.992C243.111 286.984 243.479 287.88 244.215 288.68C244.951 289.48 246.167 289.96 247.863 290.12L250.311 290.312C254.119 290.664 257.175 291.72 259.479 293.48C261.815 295.208 262.983 297.672 262.983 300.872C262.983 303.816 262.023 306.168 260.103 307.928C258.215 309.656 255.511 310.696 251.991 311.048V317.192H245.703Z" fill="#1CEC18"/>
<path d="M245.703 317.192H240.703V322.192H245.703V317.192ZM245.703 311H250.703V306.63L246.373 306.045L245.703 311ZM237.687 307.4L234.032 310.812H234.032L237.687 307.4ZM234.999 300.008V295.008H229.999V300.008H234.999ZM242.055 300.008H247.055V295.008H242.055V300.008ZM243.735 303.608L240.361 307.298L240.39 307.325L240.42 307.351L243.735 303.608ZM254.103 303.944L251.382 299.749L251.356 299.766L251.33 299.784L254.103 303.944ZM254.391 298.136L251.412 302.151L251.454 302.183L251.497 302.214L254.391 298.136ZM249.639 296.696L250.151 291.722L250.091 291.716L250.03 291.711L249.639 296.696ZM247.191 296.504L246.726 301.482L246.763 301.486L246.8 301.489L247.191 296.504ZM239.031 293.432L235.743 297.199L235.76 297.214L235.777 297.228L239.031 293.432ZM238.503 279.224L242.004 282.794L242.005 282.793L238.503 279.224ZM245.511 276.152L246.151 281.111L250.511 280.548V276.152H245.511ZM245.511 271.304V266.304H240.511V271.304H245.511ZM251.799 271.304H256.799V266.304H251.799V271.304ZM251.799 276.2H246.799V280.428L250.969 281.131L251.799 276.2ZM258.759 279.752L254.972 283.017L255.002 283.052L255.033 283.086L258.759 279.752ZM261.207 286.952V291.952H266.207V286.952H261.207ZM254.151 286.952H249.151V291.952H254.151V286.952ZM252.663 283.496L249.128 287.032L249.157 287.061L249.186 287.089L252.663 283.496ZM244.503 283.16L247.525 287.143L247.568 287.111L247.61 287.077L244.503 283.16ZM244.215 288.68L247.895 285.295L247.895 285.295L244.215 288.68ZM247.863 290.12L247.394 295.098L247.433 295.102L247.472 295.105L247.863 290.12ZM250.311 290.312L250.771 285.333L250.737 285.33L250.702 285.327L250.311 290.312ZM259.479 293.48L256.444 297.453L256.475 297.477L256.506 297.5L259.479 293.48ZM260.103 307.928L263.479 311.616L263.482 311.614L260.103 307.928ZM251.991 311.048L251.494 306.073L246.991 306.523V311.048H251.991ZM251.991 317.192V322.192H256.991V317.192H251.991ZM250.703 317.192V311H240.703V317.192H250.703ZM246.373 306.045C243.549 305.663 242.102 304.802 241.342 303.988L234.032 310.812C236.856 313.838 240.753 315.377 245.034 315.955L246.373 306.045ZM241.342 303.988C240.541 303.129 239.999 301.947 239.999 300.008H229.999C229.999 304.085 231.25 307.831 234.032 310.812L241.342 303.988ZM234.999 305.008H242.055V295.008H234.999V305.008ZM237.055 300.008C237.055 302.941 238.324 305.435 240.361 307.298L247.109 299.918C247.035 299.85 247 299.807 246.99 299.793C246.98 299.781 246.99 299.791 247.006 299.826C247.022 299.86 247.037 299.902 247.046 299.945C247.055 299.987 247.055 300.011 247.055 300.008H237.055ZM240.42 307.351C242.887 309.536 246.164 310.096 249.111 310.096V300.096C248.193 300.096 247.6 300.001 247.253 299.905C246.917 299.812 246.919 299.749 247.05 299.865L240.42 307.351ZM249.111 310.096C251.755 310.096 254.557 309.65 256.877 308.104L251.33 299.784C251.358 299.765 251.243 299.849 250.867 299.936C250.488 300.023 249.918 300.096 249.111 300.096V310.096ZM256.824 308.139C259.257 306.561 260.879 304.042 260.879 300.872H250.879C250.879 300.708 250.927 300.408 251.107 300.097C251.275 299.807 251.439 299.712 251.382 299.749L256.824 308.139ZM260.879 300.872C260.879 297.975 259.465 295.606 257.285 294.058L251.497 302.214C251.478 302.2 251.289 302.056 251.115 301.737C250.933 301.403 250.879 301.079 250.879 300.872H260.879ZM257.37 294.121C255.293 292.579 252.624 291.977 250.151 291.722L249.127 301.67C249.992 301.759 250.603 301.886 251.009 302.009C251.426 302.136 251.505 302.22 251.412 302.151L257.37 294.121ZM250.03 291.711L247.582 291.519L246.8 301.489L249.248 301.681L250.03 291.711ZM247.656 291.526C244.959 291.274 243.313 290.517 242.285 289.636L235.777 297.228C238.781 299.803 242.575 301.094 246.726 301.482L247.656 291.526ZM242.319 289.665C241.604 289.041 241.007 288.058 241.007 285.992H231.007C231.007 290.326 232.426 294.303 235.743 297.199L242.319 289.665ZM241.007 285.992C241.007 284.118 241.515 283.273 242.004 282.794L235.002 275.654C232.163 278.439 231.007 282.106 231.007 285.992H241.007ZM242.005 282.793C242.74 282.072 243.967 281.393 246.151 281.111L244.871 271.193C241.103 271.679 237.659 273.048 235.001 275.655L242.005 282.793ZM250.511 276.152V271.304H240.511V276.152H250.511ZM245.511 276.304H251.799V266.304H245.511V276.304ZM246.799 271.304V276.2H256.799V271.304H246.799ZM250.969 281.131C253.164 281.5 254.313 282.252 254.972 283.017L262.546 276.487C260.005 273.54 256.515 271.924 252.63 271.269L250.969 281.131ZM255.033 283.086C255.676 283.805 256.207 284.928 256.207 286.952H266.207C266.207 283.024 265.106 279.347 262.485 276.418L255.033 283.086ZM261.207 281.952H254.151V291.952H261.207V281.952ZM259.151 286.952C259.151 284.213 258.076 281.776 256.14 279.903L249.186 287.089C249.224 287.126 249.233 287.141 249.227 287.132C249.22 287.122 249.203 287.096 249.187 287.057C249.17 287.018 249.159 286.982 249.154 286.955C249.149 286.928 249.151 286.925 249.151 286.952H259.151ZM256.199 279.96C253.999 277.761 251.123 277.056 248.439 277.056V287.056C248.949 287.056 249.2 287.123 249.274 287.149C249.324 287.166 249.239 287.142 249.128 287.032L256.199 279.96ZM248.439 277.056C246.09 277.056 243.519 277.559 241.396 279.243L247.61 287.077C247.482 287.179 247.421 287.178 247.534 287.146C247.658 287.111 247.941 287.056 248.439 287.056V277.056ZM241.481 279.177C239.283 280.844 238.111 283.274 238.111 285.992H248.111C248.111 286.068 248.092 286.305 247.946 286.602C247.8 286.9 247.614 287.076 247.525 287.143L241.481 279.177ZM238.111 285.992C238.111 288.363 239.039 290.438 240.536 292.065L247.895 285.295C247.879 285.277 247.946 285.346 248.012 285.508C248.082 285.678 248.111 285.853 248.111 285.992H238.111ZM240.536 292.065C242.471 294.17 245.134 294.885 247.394 295.098L248.333 285.142C247.82 285.094 247.576 285.013 247.515 284.989C247.469 284.971 247.658 285.038 247.895 285.295L240.536 292.065ZM247.472 295.105L249.92 295.297L250.702 285.327L248.254 285.135L247.472 295.105ZM249.851 295.291C253.015 295.583 255.09 296.419 256.444 297.453L262.514 289.507C259.261 287.021 255.223 285.745 250.771 285.333L249.851 295.291ZM256.506 297.5C257.425 298.18 257.983 299.072 257.983 300.872H267.983C267.983 296.272 266.206 292.236 262.453 289.46L256.506 297.5ZM257.983 300.872C257.983 302.616 257.471 303.558 256.725 304.242L263.482 311.614C266.575 308.778 267.983 305.016 267.983 300.872H257.983ZM256.727 304.24C255.889 305.007 254.342 305.788 251.494 306.073L252.489 316.023C256.68 315.604 260.542 314.305 263.479 311.616L256.727 304.24ZM246.991 311.048V317.192H256.991V311.048H246.991ZM251.991 312.192H245.703V322.192H251.991V312.192Z" fill="white"/>
</g>
<g filter="url(#filter3_d_2_1118)">
<path d="M301.226 297.285L286.376 282.48L280 288.837L301.226 310L345 266.357L338.624 260L301.226 297.285Z" fill="#1CEC18"/>
<path d="M288.142 280.71L286.376 278.95L284.611 280.71L278.235 287.067L276.459 288.837L278.235 290.608L299.461 311.77L301.226 313.53L302.991 311.77L346.765 268.128L348.541 266.357L346.765 264.587L340.389 258.23L338.624 256.47L336.858 258.23L301.226 293.755L288.142 280.71Z" stroke="white" stroke-width="5"/>
</g>
</g>
<defs>
<filter id="filter0_d_2_1118" x="40" y="39" width="251" height="304" filterUnits="userSpaceOnUse" color-interpolation-filters="sRGB">
<feFlood flood-opacity="0" result="BackgroundImageFix"/>
<feColorMatrix in="SourceAlpha" type="matrix" values="0 0 0 0 0 0 0 0 0 0 0 0 0 0 0 0 0 0 127 0" result="hardAlpha"/>
<feOffset dy="1"/>
<feGaussianBlur stdDeviation="4"/>
<feComposite in2="hardAlpha" operator="out"/>
<feColorMatrix type="matrix" values="0 0 0 0 0 0 0 0 0 0 0 0 0 0 0 0 0 0 0.25 0"/>
<feBlend mode="normal" in2="BackgroundImageFix" result="effect1_dropShadow_2_1118"/>
<feBlend mode="normal" in="SourceGraphic" in2="effect1_dropShadow_2_1118" result="shape"/>
</filter>
<filter id="filter1_d_2_1118" x="202" y="235" width="121" height="121" filterUnits="userSpaceOnUse" color-interpolation-filters="sRGB">
<feFlood flood-opacity="0" result="BackgroundImageFix"/>
<feColorMatrix in="SourceAlpha" type="matrix" values="0 0 0 0 0 0 0 0 0 0 0 0 0 0 0 0 0 0 127 0" result="hardAlpha"/>
<feOffset dy="1"/>
<feGaussianBlur stdDeviation="4"/>
<feComposite in2="hardAlpha" operator="out"/>
<feColorMatrix type="matrix" values="0 0 0 0 0 0 0 0 0 0 0 0 0 0 0 0 0 0 0.25 0"/>
<feBlend mode="normal" in2="BackgroundImageFix" result="effect1_dropShadow_2_1118"/>
<feBlend mode="normal" in="SourceGraphic" in2="effect1_dropShadow_2_1118" result="shape"/>
</filter>
<filter id="filter2_d_2_1118" x="226.999" y="264.304" width="43.984" height="61.888" filterUnits="userSpaceOnUse" color-interpolation-filters="sRGB">
<feFlood flood-opacity="0" result="BackgroundImageFix"/>
<feColorMatrix in="SourceAlpha" type="matrix" values="0 0 0 0 0 0 0 0 0 0 0 0 0 0 0 0 0 0 127 0" result="hardAlpha"/>
<feOffset dy="1"/>
<feGaussianBlur stdDeviation="4"/>
<feComposite in2="hardAlpha" operator="out"/>
<feColorMatrix type="matrix" values="0 0 0 0 0 0 0 0 0 0 0 0 0 0 0 0 0 0 0.25 0"/>
<feBlend mode="normal" in2="BackgroundImageFix" result="effect1_dropShadow_2_1118"/>
<feBlend mode="normal" in="SourceGraphic" in2="effect1_dropShadow_2_1118" result="shape"/>
</filter>
<filter id="filter3_d_2_1118" x="264.918" y="245.94" width="95.1633" height="80.121" filterUnits="userSpaceOnUse" color-interpolation-filters="sRGB">
<feFlood flood-opacity="0" result="BackgroundImageFix"/>
<feColorMatrix in="SourceAlpha" type="matrix" values="0 0 0 0 0 0 0 0 0 0 0 0 0 0 0 0 0 0 127 0" result="hardAlpha"/>
<feOffset dy="1"/>
<feGaussianBlur stdDeviation="4"/>
<feComposite in2="hardAlpha" operator="out"/>
<feColorMatrix type="matrix" values="0 0 0 0 0 0 0 0 0 0 0 0 0 0 0 0 0 0 0.25 0"/>
<feBlend mode="normal" in2="BackgroundImageFix" result="effect1_dropShadow_2_1118"/>
<feBlend mode="normal" in="SourceGraphic" in2="effect1_dropShadow_2_1118" result="shape"/>
</filter>
</defs>
</svg>
