<svg width="352" height="370" viewBox="0 0 352 370" fill="none" xmlns="http://www.w3.org/2000/svg">
<mask id="mask0_2_2" style="mask-type:alpha" maskUnits="userSpaceOnUse" x="0" y="0" width="352" height="370">
<rect width="352" height="370" fill="white"/>
</mask>
<g mask="url(#mask0_2_2)">
<rect width="352" height="370" fill="white"/>
<g filter="url(#filter0_d_2_2)">
<rect x="48" y="44" width="235" height="288" rx="15" fill="#EBEBEB"/>
</g>
<rect x="72.1718" y="62.118" width="184.475" height="18.118" rx="9.05902" fill="#D7D6D6"/>
<rect x="65.5835" y="128.825" width="200.945" height="9.88257" rx="4.94128" fill="#D7D7D7"/>
<rect x="65.5835" y="150.238" width="200.945" height="9.88257" rx="4.94128" fill="#D7D7D7"/>
<rect x="66" y="180" width="138" height="10" rx="5" fill="#D7D7D7"/>
<rect x="65.5835" y="214.474" width="114.473" height="9.88257" rx="4.94128" fill="#D7D7D7"/>
<rect x="222.881" y="214.474" width="43.648" height="9.88257" rx="4.94128" fill="#CF5544"/>
<rect x="66" y="306" width="92" height="10" rx="5" fill="#D7D7D7"/>
<rect x="66" y="291" width="121" height="10" rx="5" fill="#B7B7B7"/>
<path d="M223 33H265V103L244 79.5L223 103V33Z" fill="#F3C140"/>
<g filter="url(#filter1_d_2_2)">
<rect x="202.5" y="209.938" width="135" height="135" rx="18.5" fill="#8DCFE4" stroke="white" stroke-width="7"/>
<rect x="234.764" y="226.912" width="70.4719" height="6.73684" rx="3.36842" fill="#204C59"/>
<rect x="206" y="251.165" width="128" height="90.2737" rx="15" fill="#3889A3"/>
<path d="M252.022 272.722H287.978V326.617L270 308.524L252.022 326.617V272.722Z" fill="#F3C140"/>
</g>
</g>
<defs>
<filter id="filter0_d_2_2" x="40" y="37" width="251" height="304" filterUnits="userSpaceOnUse" color-interpolation-filters="sRGB">
<feFlood flood-opacity="0" result="BackgroundImageFix"/>
<feColorMatrix in="SourceAlpha" type="matrix" values="0 0 0 0 0 0 0 0 0 0 0 0 0 0 0 0 0 0 127 0" result="hardAlpha"/>
<feOffset dy="1"/>
<feGaussianBlur stdDeviation="4"/>
<feComposite in2="hardAlpha" operator="out"/>
<feColorMatrix type="matrix" values="0 0 0 0 0 0 0 0 0 0 0 0 0 0 0 0 0 0 0.25 0"/>
<feBlend mode="normal" in2="BackgroundImageFix" result="effect1_dropShadow_2_2"/>
<feBlend mode="normal" in="SourceGraphic" in2="effect1_dropShadow_2_2" result="shape"/>
</filter>
<filter id="filter1_d_2_2" x="191" y="199.438" width="158" height="158" filterUnits="userSpaceOnUse" color-interpolation-filters="sRGB">
<feFlood flood-opacity="0" result="BackgroundImageFix"/>
<feColorMatrix in="SourceAlpha" type="matrix" values="0 0 0 0 0 0 0 0 0 0 0 0 0 0 0 0 0 0 127 0" result="hardAlpha"/>
<feOffset dy="1"/>
<feGaussianBlur stdDeviation="4"/>
<feComposite in2="hardAlpha" operator="out"/>
<feColorMatrix type="matrix" values="0 0 0 0 0 0 0 0 0 0 0 0 0 0 0 0 0 0 0.25 0"/>
<feBlend mode="normal" in2="BackgroundImageFix" result="effect1_dropShadow_2_2"/>
<feBlend mode="normal" in="SourceGraphic" in2="effect1_dropShadow_2_2" result="shape"/>
</filter>
</defs>
</svg>
