<svg width="352" height="370" viewBox="0 0 352 370" fill="none" xmlns="http://www.w3.org/2000/svg">
<mask id="mask0_0_154" style="mask-type:alpha" maskUnits="userSpaceOnUse" x="0" y="0" width="352" height="370">
<rect width="352" height="370" fill="white"/>
</mask>
<g mask="url(#mask0_0_154)">
<rect width="352" height="370" fill="white"/>
<mask id="mask1_0_154" style="mask-type:alpha" maskUnits="userSpaceOnUse" x="30" y="35" width="291" height="292">
<rect x="30" y="35" width="291" height="292" rx="15" fill="#EBEBEB"/>
</mask>
<g mask="url(#mask1_0_154)">
<g filter="url(#filter0_d_0_154)">
<rect x="33" y="38" width="285" height="286" rx="15" fill="#EBEBEB"/>
</g>
<path fill-rule="evenodd" clip-rule="evenodd" d="M181.994 127.991C183.556 129.227 184.525 130.783 185.102 132.298C188.746 135.174 191.086 139.63 191.086 144.633C191.086 145.8 190.958 146.937 190.717 148.031C192.687 149.392 193.979 151.666 193.979 154.241C193.979 157.131 192.353 159.641 189.967 160.907C188.6 167.712 182.59 172.838 175.382 172.838C168.174 172.838 162.164 167.712 160.797 160.907C158.411 159.641 156.786 157.131 156.786 154.241C156.786 151.666 158.077 149.392 160.047 148.031C159.805 146.937 159.678 145.8 159.678 144.633C159.678 144.458 159.681 144.283 159.687 144.109C159.044 143.968 158.491 143.8 158.054 143.632C160.105 134.615 161.687 129.639 172.808 128.026C174.994 126.769 178.899 125.544 181.994 127.991ZM199.557 200.939C199.557 214.348 188.687 225.218 175.279 225.218C161.87 225.218 151 214.348 151 200.939C151 187.53 161.87 176.66 175.279 176.66C188.687 176.66 199.557 187.53 199.557 200.939Z" fill="#CDCDCD"/>
<path fill-rule="evenodd" clip-rule="evenodd" d="M251.994 127.991C253.556 129.227 254.525 130.783 255.102 132.298C258.746 135.174 261.086 139.63 261.086 144.633C261.086 145.8 260.958 146.937 260.717 148.031C262.687 149.392 263.979 151.666 263.979 154.241C263.979 157.131 262.353 159.641 259.967 160.907C258.6 167.712 252.59 172.838 245.382 172.838C238.174 172.838 232.164 167.712 230.797 160.907C228.411 159.641 226.786 157.131 226.786 154.241C226.786 151.666 228.077 149.392 230.047 148.031C229.805 146.937 229.678 145.8 229.678 144.633C229.678 144.458 229.681 144.283 229.687 144.109C229.044 143.968 228.491 143.8 228.054 143.632C230.105 134.615 231.687 129.639 242.808 128.026C244.994 126.769 248.899 125.544 251.994 127.991ZM269.557 200.939C269.557 214.348 258.687 225.218 245.279 225.218C231.87 225.218 221 214.348 221 200.939C221 187.53 231.87 176.66 245.279 176.66C258.687 176.66 269.557 187.53 269.557 200.939Z" fill="#CDCDCD"/>
<path fill-rule="evenodd" clip-rule="evenodd" d="M112.994 254.991C114.556 256.227 115.525 257.783 116.102 259.298C119.746 262.174 122.086 266.63 122.086 271.633C122.086 272.8 121.958 273.937 121.717 275.031C123.687 276.392 124.979 278.666 124.979 281.241C124.979 284.131 123.353 286.641 120.967 287.907C119.6 294.712 113.59 299.838 106.382 299.838C99.1744 299.838 93.1639 294.712 91.7966 287.907C89.4106 286.641 87.7856 284.131 87.7856 281.241C87.7856 278.666 89.0766 276.392 91.0469 275.031C90.8055 273.937 90.6783 272.8 90.6783 271.633C90.6783 271.458 90.6811 271.283 90.6868 271.109C90.0443 270.968 89.4911 270.8 89.0538 270.632C91.1053 261.615 92.6869 256.639 103.808 255.026C105.994 253.769 109.899 252.544 112.994 254.991ZM130.557 327.939C130.557 341.348 119.687 352.218 106.279 352.218C92.87 352.218 82 341.348 82 327.939C82 314.53 92.87 303.66 106.279 303.66C119.687 303.66 130.557 314.53 130.557 327.939Z" fill="#CDCDCD"/>
<path d="M127.551 148.113C127.514 149.591 127.328 151.032 127.007 152.422C127.396 152.389 127.789 152.372 128.186 152.372C135.815 152.372 142 158.557 142 166.186C142 173.815 135.815 180 128.186 180C121.878 180 116.558 175.772 114.904 169.995C112.422 171.824 109.475 172.884 106.314 172.884C102.929 172.884 99.79 171.669 97.204 169.595C95.6859 175.576 90.2666 180 83.814 180C76.1847 180 70 173.815 70 166.186C70 158.807 75.7859 152.779 83.0686 152.392C81.9475 147.719 82.0231 141.666 86.6004 137.28C86.9006 136.993 87.2059 136.719 87.5156 136.458C91.2867 130.192 98.1538 126 106 126C112.294 126 117.958 128.697 121.899 132.998C125.501 134.869 128.656 138.546 131.912 145.263C130.897 146.159 129.376 147.226 127.551 148.113Z" fill="#CDCDCD"/>
<path d="M131.116 201.872C131.116 215.454 120.106 226.465 106.523 226.465C92.9408 226.465 81.9302 215.454 81.9302 201.872C81.9302 188.29 92.9408 177.279 106.523 177.279C120.106 177.279 131.116 188.29 131.116 201.872Z" fill="#CDCDCD"/>
<path d="M266.551 274.694C266.514 276.172 266.328 277.613 266.007 279.003C266.396 278.97 266.789 278.953 267.186 278.953C274.815 278.953 281 285.138 281 292.767C281 300.397 274.815 306.581 267.186 306.581C260.878 306.581 255.558 302.353 253.904 296.576C251.422 298.405 248.475 299.465 245.314 299.465C241.929 299.465 238.79 298.25 236.204 296.177C234.686 302.157 229.267 306.581 222.814 306.581C215.185 306.581 209 300.397 209 292.767C209 285.388 214.786 279.36 222.069 278.973C220.947 274.3 221.023 268.247 225.6 263.862C225.901 263.574 226.206 263.3 226.516 263.039C230.287 256.773 237.154 252.581 245 252.581C251.294 252.581 256.958 255.278 260.899 259.58C264.501 261.451 267.656 265.127 270.912 271.844C269.897 272.74 268.376 273.808 266.551 274.694Z" fill="#CDCDCD"/>
<path d="M270.116 328.453C270.116 342.036 259.106 353.046 245.523 353.046C231.941 353.046 220.93 342.036 220.93 328.453C220.93 314.871 231.941 303.86 245.523 303.86C259.106 303.86 270.116 314.871 270.116 328.453Z" fill="#CDCDCD"/>
<path d="M197.551 274.694C197.514 276.172 197.328 277.613 197.007 279.003C197.396 278.97 197.789 278.953 198.186 278.953C205.815 278.953 212 285.138 212 292.767C212 300.397 205.815 306.581 198.186 306.581C191.878 306.581 186.558 302.353 184.904 296.576C182.422 298.405 179.475 299.465 176.314 299.465C172.929 299.465 169.79 298.25 167.204 296.177C165.686 302.157 160.267 306.581 153.814 306.581C146.185 306.581 140 300.397 140 292.767C140 285.388 145.786 279.36 153.069 278.973C151.947 274.3 152.023 268.247 156.6 263.862C156.901 263.574 157.206 263.3 157.516 263.039C161.287 256.773 168.154 252.581 176 252.581C182.294 252.581 187.958 255.278 191.899 259.58C195.501 261.451 198.656 265.127 201.912 271.844C200.897 272.74 199.376 273.808 197.551 274.694Z" fill="#CDCDCD"/>
<path d="M201.116 328.453C201.116 342.036 190.106 353.046 176.523 353.046C162.941 353.046 151.93 342.036 151.93 328.453C151.93 314.871 162.941 303.86 176.523 303.86C190.106 303.86 201.116 314.871 201.116 328.453Z" fill="#CDCDCD"/>
<rect x="62" y="60" width="224" height="22" rx="11" fill="#D7D6D6"/>
<rect x="91" y="90" width="166" height="16" rx="8" fill="#D7D7D7"/>
</g>
<g filter="url(#filter1_d_0_154)">
<mask id="path-13-outside-1_0_154" maskUnits="userSpaceOnUse" x="200" y="220" width="142" height="142" fill="black">
<rect fill="white" x="200" y="220" width="142" height="142"/>
<path fill-rule="evenodd" clip-rule="evenodd" d="M334.515 291C334.835 288.691 335 286.34 335 283.954C335 252.499 306.346 227 271 227C235.654 227 207 252.499 207 283.954C207 286.34 207.165 288.691 207.485 291C207.165 293.309 207 295.66 207 298.046C207 329.501 235.654 355 271 355C306.346 355 335 329.501 335 298.046C335 295.66 334.835 293.309 334.515 291Z"/>
</mask>
<path d="M334.515 291L327.581 290.039L327.448 291L327.581 291.961L334.515 291ZM207.485 291L214.419 291.961L214.552 291L214.419 290.039L207.485 291ZM328 283.954C328 286.017 327.858 288.047 327.581 290.039L341.449 291.961C341.813 289.335 342 286.663 342 283.954H328ZM271 234C303.27 234 328 257.11 328 283.954H342C342 247.888 309.422 220 271 220V234ZM214 283.954C214 257.11 238.73 234 271 234V220C232.578 220 200 247.888 200 283.954H214ZM214.419 290.039C214.142 288.047 214 286.017 214 283.954H200C200 286.663 200.187 289.335 200.551 291.961L214.419 290.039ZM214 298.046C214 295.983 214.142 293.953 214.419 291.961L200.551 290.039C200.187 292.665 200 295.337 200 298.046H214ZM271 348C238.73 348 214 324.89 214 298.046H200C200 334.112 232.578 362 271 362V348ZM328 298.046C328 324.89 303.27 348 271 348V362C309.422 362 342 334.112 342 298.046H328ZM327.581 291.961C327.858 293.953 328 295.983 328 298.046H342C342 295.337 341.813 292.665 341.449 290.039L327.581 291.961Z" fill="white" mask="url(#path-13-outside-1_0_154)"/>
<ellipse cx="271" cy="298.046" rx="64" ry="56.9541" fill="#D7A908"/>
<ellipse cx="271" cy="283.954" rx="64" ry="56.9541" fill="#F2CC46"/>
<ellipse cx="271" cy="283.954" rx="52.1237" ry="46.3853" fill="#EBBC16"/>
<path d="M271.66 247.159C263.613 247.159 255.746 249.283 249.055 253.261C242.364 257.24 237.149 262.895 234.07 269.511C230.99 276.127 230.185 283.407 231.754 290.431C233.324 297.454 237.199 303.906 242.89 308.97C248.58 314.034 255.83 317.482 263.722 318.879C271.615 320.276 279.796 319.559 287.23 316.819C294.665 314.078 301.019 309.437 305.49 303.483C309.961 297.529 312.347 290.528 312.347 283.367C312.347 278.612 311.295 273.904 309.25 269.511C307.205 265.118 304.208 261.126 300.43 257.764C296.652 254.402 292.167 251.735 287.23 249.915C282.294 248.096 277.003 247.159 271.66 247.159ZM271.66 312.333C265.222 312.333 258.929 310.634 253.576 307.452C248.223 304.269 244.051 299.745 241.588 294.452C239.124 289.159 238.48 283.335 239.736 277.716C240.992 272.097 244.092 266.936 248.644 262.885C253.196 258.834 258.996 256.075 265.31 254.957C271.624 253.839 278.169 254.413 284.116 256.605C290.064 258.798 295.148 262.511 298.724 267.274C302.301 272.038 304.21 277.638 304.21 283.367C304.21 291.049 300.78 298.417 294.676 303.849C288.572 309.281 280.293 312.333 271.66 312.333Z" fill="#D7A908"/>
<path d="M271.66 279.746C263.522 279.746 263.522 277.465 263.522 276.125C263.522 274.786 266.371 272.505 271.66 272.505C276.949 272.505 277.315 274.822 277.356 276.125H285.494C285.439 273.659 284.442 271.282 282.667 269.387C280.892 267.492 278.445 266.19 275.729 265.697V261.642H267.591V265.589C259.454 266.784 255.385 271.455 255.385 276.125C255.385 280.181 257.501 286.988 271.66 286.988C279.797 286.988 279.797 289.45 279.797 290.609C279.797 291.767 277.275 294.229 271.66 294.229C264.173 294.229 263.522 291.115 263.522 290.609H255.385C255.385 293.94 258.07 299.842 267.591 301.181V305.092H275.729V301.181C283.866 299.95 287.935 295.279 287.935 290.609C287.935 286.553 285.819 279.746 271.66 279.746Z" fill="#D7A908"/>
</g>
</g>
<defs>
<filter id="filter0_d_0_154" x="25" y="31" width="301" height="302" filterUnits="userSpaceOnUse" color-interpolation-filters="sRGB">
<feFlood flood-opacity="0" result="BackgroundImageFix"/>
<feColorMatrix in="SourceAlpha" type="matrix" values="0 0 0 0 0 0 0 0 0 0 0 0 0 0 0 0 0 0 127 0" result="hardAlpha"/>
<feOffset dy="1"/>
<feGaussianBlur stdDeviation="4"/>
<feComposite in2="hardAlpha" operator="out"/>
<feColorMatrix type="matrix" values="0 0 0 0 0 0 0 0 0 0 0 0 0 0 0 0 0 0 0.25 0"/>
<feBlend mode="normal" in2="BackgroundImageFix" result="effect1_dropShadow_0_154"/>
<feBlend mode="normal" in="SourceGraphic" in2="effect1_dropShadow_0_154" result="shape"/>
</filter>
<filter id="filter1_d_0_154" x="192" y="213" width="158" height="158" filterUnits="userSpaceOnUse" color-interpolation-filters="sRGB">
<feFlood flood-opacity="0" result="BackgroundImageFix"/>
<feColorMatrix in="SourceAlpha" type="matrix" values="0 0 0 0 0 0 0 0 0 0 0 0 0 0 0 0 0 0 127 0" result="hardAlpha"/>
<feOffset dy="1"/>
<feGaussianBlur stdDeviation="4"/>
<feComposite in2="hardAlpha" operator="out"/>
<feColorMatrix type="matrix" values="0 0 0 0 0 0 0 0 0 0 0 0 0 0 0 0 0 0 0.25 0"/>
<feBlend mode="normal" in2="BackgroundImageFix" result="effect1_dropShadow_0_154"/>
<feBlend mode="normal" in="SourceGraphic" in2="effect1_dropShadow_0_154" result="shape"/>
</filter>
</defs>
</svg>
