<svg width="352" height="370" viewBox="0 0 352 370" fill="none" xmlns="http://www.w3.org/2000/svg">
<mask id="mask0_2_75" style="mask-type:alpha" maskUnits="userSpaceOnUse" x="0" y="0" width="352" height="370">
<rect width="352" height="370" fill="white"/>
</mask>
<g mask="url(#mask0_2_75)">
<rect width="352" height="370" fill="white"/>
<path fill-rule="evenodd" clip-rule="evenodd" d="M69.9211 200.134C71.1775 201.127 71.9562 202.378 72.4206 203.597C75.3508 205.91 77.2316 209.493 77.2316 213.515C77.2316 214.453 77.1293 215.367 76.9353 216.247C78.5196 217.341 79.5578 219.17 79.5578 221.241C79.5578 223.564 78.2511 225.583 76.3324 226.601C75.233 232.072 70.4001 236.194 64.6047 236.194C58.8092 236.194 53.9764 232.072 52.877 226.601C50.9585 225.582 49.6519 223.564 49.6519 221.241C49.6519 219.17 50.69 217.341 52.2741 216.247C52.08 215.367 51.9777 214.453 51.9777 213.515C51.9777 213.374 51.98 213.234 51.9846 213.094C51.4679 212.98 51.0231 212.845 50.6715 212.71C52.3211 205.46 53.5928 201.458 62.5356 200.162C64.2931 199.151 67.4327 198.166 69.9211 200.134ZM84.0438 258.789C84.0438 269.571 75.3036 278.311 64.5219 278.311C53.7403 278.311 45 269.571 45 258.789C45 248.008 53.7403 239.267 64.5219 239.267C75.3036 239.267 84.0438 248.008 84.0438 258.789Z" fill="#7FC9CE"/>
<path fill-rule="evenodd" clip-rule="evenodd" d="M71.9211 296.134C73.1775 297.127 73.9562 298.378 74.4206 299.597C77.3508 301.909 79.2316 305.493 79.2316 309.515C79.2316 310.453 79.1293 311.367 78.9353 312.247C80.5196 313.341 81.5578 315.17 81.5578 317.241C81.5578 319.564 80.2511 321.583 78.3324 322.601C77.233 328.072 72.4001 332.194 66.6047 332.194C60.8092 332.194 55.9764 328.072 54.877 322.601C52.9585 321.582 51.6519 319.564 51.6519 317.241C51.6519 315.17 52.69 313.341 54.2741 312.247C54.08 311.367 53.9777 310.453 53.9777 309.515C53.9777 309.374 53.98 309.234 53.9846 309.094C53.4679 308.98 53.0231 308.845 52.6715 308.71C54.321 301.46 55.5928 297.458 64.5356 296.162C66.2931 295.151 69.4327 294.166 71.9211 296.134ZM86.0438 354.789C86.0438 365.571 77.3036 374.311 66.5219 374.311C55.7403 374.311 47 365.571 47 354.789C47 344.008 55.7403 335.267 66.5219 335.267C77.3036 335.267 86.0438 344.008 86.0438 354.789Z" fill="#CC4141"/>
<path d="M80.16 118.828C80.1294 120.02 79.9769 121.182 79.7143 122.302C80.0327 122.276 80.3549 122.263 80.6802 122.263C86.932 122.263 92 127.249 92 133.4C92 139.551 86.932 144.538 80.6802 144.538C75.5112 144.538 71.1513 141.129 69.7963 136.471C67.7623 137.946 65.3475 138.8 62.7573 138.8C59.9838 138.8 57.4112 137.82 55.2922 136.149C54.0482 140.971 49.6074 144.538 44.3198 144.538C38.068 144.538 33 139.551 33 133.4C33 127.451 37.7412 122.591 43.709 122.278C42.7903 118.511 42.8523 113.631 46.6031 110.095C46.8491 109.863 47.0993 109.642 47.353 109.432C50.4432 104.379 56.0705 101 62.5 101C67.6574 101 72.2987 103.175 75.5283 106.643C78.4802 108.151 81.0652 111.115 83.7331 116.531C82.9014 117.253 81.6557 118.114 80.16 118.828Z" fill="#7FC9CE"/>
<path d="M83.0814 162.172C83.0814 173.123 74.0587 182 62.9287 182C51.7988 182 42.7761 173.123 42.7761 162.172C42.7761 151.221 51.7988 142.344 62.9287 142.344C74.0587 142.344 83.0814 151.221 83.0814 162.172Z" fill="#7FC9CE"/>
<rect x="62" y="34" width="224" height="22" rx="11" fill="#D7D6D6"/>
<rect x="148" y="108" width="145" height="8" rx="4" fill="#D7D6D6"/>
<rect x="148" y="132" width="145" height="8" rx="4" fill="#D7D6D6"/>
<rect x="148" y="159" width="80" height="8" rx="4" fill="#D7D6D6"/>
<rect x="148" y="145" width="145" height="8" rx="4" fill="#D7D6D6"/>
<rect x="148" y="207" width="145" height="8" rx="4" fill="#D7D6D6"/>
<rect x="148" y="231" width="145" height="8" rx="4" fill="#D7D6D6"/>
<rect x="148" y="258" width="41" height="8" rx="4" fill="#D7D6D6"/>
<rect x="148" y="244" width="145" height="8" rx="4" fill="#D7D6D6"/>
<rect x="148" y="306" width="145" height="8" rx="4" fill="#D7D6D6"/>
<rect x="148" y="330" width="145" height="8" rx="4" fill="#D7D6D6"/>
<rect x="148" y="357" width="121" height="8" rx="4" fill="#D7D6D6"/>
<rect x="148" y="343" width="145" height="8" rx="4" fill="#D7D6D6"/>
<rect x="91" y="68" width="166" height="16" rx="8" fill="#D7D7D7"/>
<rect x="189" y="227" width="118" height="118" rx="10" fill="white" stroke="#AEAEAE" stroke-width="10"/>
<g filter="url(#filter0_d_2_75)">
<mask id="path-21-inside-1_2_75" fill="white">
<path fill-rule="evenodd" clip-rule="evenodd" d="M226.884 249.755C228.441 250.986 229.406 252.536 229.981 254.047C233.612 256.912 235.943 261.353 235.943 266.337C235.943 267.5 235.816 268.633 235.576 269.723C237.539 271.079 238.826 273.345 238.826 275.911C238.826 278.791 237.207 281.292 234.829 282.554C233.467 289.335 227.477 294.442 220.295 294.442C213.113 294.442 207.124 289.335 205.762 282.554C203.384 281.292 201.765 278.791 201.765 275.912C201.765 273.345 203.051 271.079 205.015 269.723C204.774 268.633 204.647 267.5 204.647 266.337C204.647 266.163 204.65 265.989 204.656 265.816C204.016 265.674 203.464 265.507 203.029 265.34C205.073 256.355 206.649 251.396 217.731 249.789C219.909 248.536 223.8 247.316 226.884 249.755ZM244.385 322.444C244.385 335.805 233.554 346.636 220.193 346.636C206.831 346.636 196 335.805 196 322.444C196 309.082 206.831 298.251 220.193 298.251C233.554 298.251 244.385 309.082 244.385 322.444Z"/>
</mask>
<path fill-rule="evenodd" clip-rule="evenodd" d="M226.884 249.755C228.441 250.986 229.406 252.536 229.981 254.047C233.612 256.912 235.943 261.353 235.943 266.337C235.943 267.5 235.816 268.633 235.576 269.723C237.539 271.079 238.826 273.345 238.826 275.911C238.826 278.791 237.207 281.292 234.829 282.554C233.467 289.335 227.477 294.442 220.295 294.442C213.113 294.442 207.124 289.335 205.762 282.554C203.384 281.292 201.765 278.791 201.765 275.912C201.765 273.345 203.051 271.079 205.015 269.723C204.774 268.633 204.647 267.5 204.647 266.337C204.647 266.163 204.65 265.989 204.656 265.816C204.016 265.674 203.464 265.507 203.029 265.34C205.073 256.355 206.649 251.396 217.731 249.789C219.909 248.536 223.8 247.316 226.884 249.755ZM244.385 322.444C244.385 335.805 233.554 346.636 220.193 346.636C206.831 346.636 196 335.805 196 322.444C196 309.082 206.831 298.251 220.193 298.251C233.554 298.251 244.385 309.082 244.385 322.444Z" fill="#7FC9CE"/>
<path d="M229.981 254.047L225.309 255.827L225.8 257.117L226.884 257.972L229.981 254.047ZM226.884 249.755L223.782 253.677L223.782 253.677L226.884 249.755ZM235.576 269.723L230.693 268.646L229.97 271.928L232.735 273.837L235.576 269.723ZM234.829 282.554L232.485 278.138L230.393 279.248L229.927 281.569L234.829 282.554ZM205.762 282.554L210.664 281.569L210.197 279.248L208.106 278.137L205.762 282.554ZM205.015 269.723L207.856 273.838L210.621 271.928L209.897 268.646L205.015 269.723ZM204.656 265.816L209.653 265.979L209.789 261.829L205.734 260.933L204.656 265.816ZM203.029 265.34L198.153 264.231L197.192 268.457L201.238 270.008L203.029 265.34ZM217.731 249.789L218.449 254.737L219.395 254.6L220.224 254.123L217.731 249.789ZM234.653 252.266C233.822 250.085 232.38 247.726 229.985 245.832L223.782 253.677C224.501 254.245 224.989 254.988 225.309 255.827L234.653 252.266ZM240.943 266.337C240.943 259.757 237.86 253.895 233.079 250.122L226.884 257.972C229.365 259.93 230.943 262.948 230.943 266.337H240.943ZM240.459 270.8C240.777 269.358 240.943 267.864 240.943 266.337H230.943C230.943 267.135 230.856 267.907 230.693 268.646L240.459 270.8ZM243.826 275.911C243.826 271.633 241.675 267.858 238.417 265.609L232.735 273.837C233.404 274.3 233.826 275.057 233.826 275.911H243.826ZM237.173 286.971C241.12 284.876 243.826 280.714 243.826 275.911H233.826C233.826 276.868 233.293 277.708 232.485 278.138L237.173 286.971ZM220.295 299.442C229.905 299.442 237.909 292.609 239.731 283.539L229.927 281.569C229.024 286.061 225.049 289.442 220.295 289.442V299.442ZM200.86 283.539C202.682 292.609 210.685 299.442 220.295 299.442V289.442C215.541 289.442 211.566 286.06 210.664 281.569L200.86 283.539ZM196.765 275.912C196.765 280.713 199.471 284.875 203.417 286.97L208.106 278.137C207.298 277.708 206.765 276.868 206.765 275.912H196.765ZM202.173 265.609C198.916 267.859 196.765 271.633 196.765 275.912H206.765C206.765 275.057 207.187 274.3 207.856 273.838L202.173 265.609ZM199.647 266.337C199.647 267.865 199.814 269.359 200.132 270.8L209.897 268.646C209.734 267.907 209.647 267.135 209.647 266.337H199.647ZM199.658 265.652C199.651 265.88 199.647 266.108 199.647 266.337H209.647C209.647 266.217 209.649 266.098 209.653 265.979L199.658 265.652ZM201.238 270.008C201.935 270.276 202.728 270.51 203.577 270.698L205.734 260.933C205.303 260.838 204.994 260.738 204.819 260.671L201.238 270.008ZM217.014 244.841C210.8 245.742 206.207 247.742 203.074 251.689C200.213 255.294 199.127 259.95 198.153 264.231L207.904 266.449C208.974 261.744 209.698 259.429 210.907 257.906C211.843 256.726 213.58 255.443 218.449 254.737L217.014 244.841ZM229.985 245.832C224.365 241.389 217.865 243.944 215.238 245.455L220.224 254.123C220.876 253.748 221.707 253.436 222.446 253.365C223.098 253.302 223.471 253.43 223.782 253.677L229.985 245.832ZM220.193 351.636C236.315 351.636 249.385 338.566 249.385 322.444H239.385C239.385 333.043 230.792 341.636 220.193 341.636V351.636ZM191 322.444C191 338.566 204.07 351.636 220.193 351.636V341.636C209.593 341.636 201 333.043 201 322.444H191ZM220.193 293.251C204.07 293.251 191 306.321 191 322.444H201C201 311.844 209.593 303.251 220.193 303.251V293.251ZM249.385 322.444C249.385 306.321 236.315 293.251 220.193 293.251V303.251C230.792 303.251 239.385 311.844 239.385 322.444H249.385Z" fill="white" mask="url(#path-21-inside-1_2_75)"/>
<mask id="path-23-inside-2_2_75" fill="white">
<path fill-rule="evenodd" clip-rule="evenodd" d="M256.626 232.405C258.183 233.636 259.148 235.187 259.723 236.697C263.355 239.563 265.685 244.003 265.685 248.988C265.685 250.15 265.559 251.283 265.318 252.373C267.282 253.729 268.568 255.995 268.568 258.562C268.568 261.441 266.949 263.943 264.571 265.204C263.209 271.985 257.22 277.092 250.038 277.092C242.856 277.092 236.866 271.985 235.504 265.204C233.126 263.942 231.507 261.441 231.507 258.562C231.507 255.996 232.794 253.73 234.757 252.374C234.516 251.283 234.389 250.15 234.389 248.988C234.389 248.813 234.392 248.639 234.398 248.466C233.758 248.325 233.206 248.157 232.771 247.99C234.815 239.005 236.391 234.047 247.473 232.439C249.651 231.187 253.542 229.967 256.626 232.405ZM274.127 305.094C274.127 318.455 263.296 329.287 249.935 329.287C236.574 329.287 225.742 318.455 225.742 305.094C225.742 291.733 236.574 280.901 249.935 280.901C263.296 280.901 274.127 291.733 274.127 305.094Z"/>
</mask>
<path fill-rule="evenodd" clip-rule="evenodd" d="M256.626 232.405C258.183 233.636 259.148 235.187 259.723 236.697C263.355 239.563 265.685 244.003 265.685 248.988C265.685 250.15 265.559 251.283 265.318 252.373C267.282 253.729 268.568 255.995 268.568 258.562C268.568 261.441 266.949 263.943 264.571 265.204C263.209 271.985 257.22 277.092 250.038 277.092C242.856 277.092 236.866 271.985 235.504 265.204C233.126 263.942 231.507 261.441 231.507 258.562C231.507 255.996 232.794 253.73 234.757 252.374C234.516 251.283 234.389 250.15 234.389 248.988C234.389 248.813 234.392 248.639 234.398 248.466C233.758 248.325 233.206 248.157 232.771 247.99C234.815 239.005 236.391 234.047 247.473 232.439C249.651 231.187 253.542 229.967 256.626 232.405ZM274.127 305.094C274.127 318.455 263.296 329.287 249.935 329.287C236.574 329.287 225.742 318.455 225.742 305.094C225.742 291.733 236.574 280.901 249.935 280.901C263.296 280.901 274.127 291.733 274.127 305.094Z" fill="#7FC9CE"/>
<path d="M259.723 236.697L255.051 238.477L255.543 239.767L256.626 240.622L259.723 236.697ZM256.626 232.405L253.525 236.327V236.327L256.626 232.405ZM265.318 252.373L260.436 251.297L259.712 254.578L262.477 256.488L265.318 252.373ZM264.571 265.204L262.227 260.788L260.136 261.898L259.669 264.219L264.571 265.204ZM235.504 265.204L240.406 264.219L239.94 261.898L237.848 260.788L235.504 265.204ZM234.757 252.374L237.598 256.488L240.363 254.578L239.639 251.297L234.757 252.374ZM234.398 248.466L239.395 248.63L239.531 244.48L235.477 243.584L234.398 248.466ZM232.771 247.99L227.895 246.881L226.934 251.107L230.98 252.659L232.771 247.99ZM247.473 232.439L248.191 237.388L249.138 237.25L249.967 236.774L247.473 232.439ZM264.396 234.917C263.565 232.735 262.122 230.377 259.727 228.483L253.525 236.327C254.243 236.895 254.731 237.638 255.051 238.477L264.396 234.917ZM270.685 248.988C270.685 242.408 267.602 236.545 262.821 232.772L256.626 240.622C259.107 242.58 260.685 245.598 260.685 248.988H270.685ZM270.201 253.45C270.519 252.009 270.685 250.515 270.685 248.988H260.685C260.685 249.786 260.599 250.558 260.436 251.297L270.201 253.45ZM273.568 258.562C273.568 254.283 271.417 250.508 268.159 248.259L262.477 256.488C263.147 256.95 263.568 257.707 263.568 258.562H273.568ZM266.915 269.621C270.862 267.526 273.568 263.364 273.568 258.562H263.568C263.568 259.519 263.036 260.359 262.227 260.788L266.915 269.621ZM250.038 282.092C259.648 282.092 267.651 275.259 269.473 266.189L259.669 264.219C258.767 268.711 254.791 272.092 250.038 272.092V282.092ZM230.602 266.189C232.424 275.259 240.427 282.092 250.038 282.092V272.092C245.284 272.092 241.308 268.711 240.406 264.219L230.602 266.189ZM226.507 258.562C226.507 263.364 229.213 267.526 233.16 269.621L237.848 260.788C237.04 260.359 236.507 259.519 236.507 258.562H226.507ZM231.915 248.26C228.658 250.509 226.507 254.284 226.507 258.562H236.507C236.507 257.707 236.929 256.95 237.598 256.488L231.915 248.26ZM229.389 248.988C229.389 250.515 229.556 252.009 229.874 253.451L239.639 251.297C239.476 250.558 239.389 249.786 239.389 248.988H229.389ZM229.401 248.302C229.393 248.53 229.389 248.759 229.389 248.988H239.389C239.389 248.868 239.391 248.748 239.395 248.63L229.401 248.302ZM230.98 252.659C231.677 252.926 232.47 253.161 233.319 253.348L235.477 243.584C235.046 243.489 234.736 243.389 234.561 243.322L230.98 252.659ZM246.756 227.491C240.542 228.392 235.95 230.392 232.816 234.34C229.955 237.944 228.869 242.601 227.895 246.881L237.646 249.1C238.717 244.395 239.44 242.079 240.649 240.557C241.586 239.377 243.322 238.094 248.191 237.388L246.756 227.491ZM259.727 228.483C254.107 224.039 247.607 226.594 244.98 228.105L249.967 236.774C250.618 236.399 251.449 236.086 252.189 236.015C252.84 235.952 253.213 236.08 253.525 236.327L259.727 228.483ZM249.935 334.287C266.057 334.287 279.127 321.217 279.127 305.094H269.127C269.127 315.694 260.535 324.287 249.935 324.287V334.287ZM220.742 305.094C220.742 321.217 233.812 334.287 249.935 334.287V324.287C239.335 324.287 230.742 315.694 230.742 305.094H220.742ZM249.935 275.901C233.812 275.901 220.742 288.971 220.742 305.094H230.742C230.742 294.494 239.335 285.901 249.935 285.901V275.901ZM279.127 305.094C279.127 288.971 266.057 275.901 249.935 275.901V285.901C260.535 285.901 269.127 294.494 269.127 305.094H279.127Z" fill="white" mask="url(#path-23-inside-2_2_75)"/>
<mask id="path-25-inside-3_2_75" fill="white">
<path fill-rule="evenodd" clip-rule="evenodd" d="M245.472 258.429C247.029 259.66 247.994 261.211 248.57 262.721C252.201 265.587 254.532 270.027 254.532 275.012C254.532 276.175 254.405 277.308 254.165 278.398C256.128 279.754 257.415 282.02 257.415 284.586C257.415 287.466 255.796 289.967 253.418 291.229C252.055 298.01 246.066 303.117 238.884 303.117C231.702 303.117 225.713 298.009 224.351 291.229C221.973 289.967 220.354 287.466 220.354 284.586C220.354 282.02 221.64 279.754 223.603 278.398C223.363 277.308 223.236 276.175 223.236 275.012C223.236 274.838 223.239 274.664 223.245 274.49C222.604 274.349 222.053 274.182 221.617 274.015C223.662 265.03 225.238 260.071 236.32 258.464C238.498 257.211 242.389 255.991 245.472 258.429ZM262.974 331.118C262.974 344.48 252.143 355.311 238.781 355.311C225.42 355.311 214.589 344.48 214.589 331.118C214.589 317.757 225.42 306.926 238.781 306.926C252.143 306.926 262.974 317.757 262.974 331.118Z"/>
</mask>
<path fill-rule="evenodd" clip-rule="evenodd" d="M245.472 258.429C247.029 259.66 247.994 261.211 248.57 262.721C252.201 265.587 254.532 270.027 254.532 275.012C254.532 276.175 254.405 277.308 254.165 278.398C256.128 279.754 257.415 282.02 257.415 284.586C257.415 287.466 255.796 289.967 253.418 291.229C252.055 298.01 246.066 303.117 238.884 303.117C231.702 303.117 225.713 298.009 224.351 291.229C221.973 289.967 220.354 287.466 220.354 284.586C220.354 282.02 221.64 279.754 223.603 278.398C223.363 277.308 223.236 276.175 223.236 275.012C223.236 274.838 223.239 274.664 223.245 274.49C222.604 274.349 222.053 274.182 221.617 274.015C223.662 265.03 225.238 260.071 236.32 258.464C238.498 257.211 242.389 255.991 245.472 258.429ZM262.974 331.118C262.974 344.48 252.143 355.311 238.781 355.311C225.42 355.311 214.589 344.48 214.589 331.118C214.589 317.757 225.42 306.926 238.781 306.926C252.143 306.926 262.974 317.757 262.974 331.118Z" fill="#5FA8AD"/>
<path d="M248.57 262.721L243.898 264.502L244.389 265.791L245.473 266.646L248.57 262.721ZM245.472 258.429L248.574 254.507L248.574 254.507L245.472 258.429ZM254.165 278.398L249.282 277.321L248.558 280.603L251.324 282.512L254.165 278.398ZM253.418 291.229L251.074 286.812L248.982 287.922L248.516 290.244L253.418 291.229ZM224.351 291.229L229.253 290.244L228.786 287.922L226.695 286.812L224.351 291.229ZM223.603 278.398L226.445 282.512L229.21 280.603L228.486 277.321L223.603 278.398ZM223.245 274.49L228.242 274.654L228.378 270.504L224.323 269.608L223.245 274.49ZM221.617 274.015L216.742 272.905L215.78 277.131L219.827 278.683L221.617 274.015ZM236.32 258.464L237.037 263.412L237.984 263.275L238.813 262.798L236.32 258.464ZM253.242 260.941C252.411 258.759 250.969 256.401 248.574 254.507L242.371 262.351C243.09 262.92 243.578 263.663 243.898 264.502L253.242 260.941ZM259.532 275.012C259.532 268.432 256.448 262.569 251.667 258.796L245.473 266.646C247.954 268.605 249.532 271.623 249.532 275.012H259.532ZM259.047 279.475C259.365 278.033 259.532 276.539 259.532 275.012H249.532C249.532 275.81 249.445 276.582 249.282 277.321L259.047 279.475ZM262.415 284.586C262.415 280.308 260.263 276.533 257.006 274.283L251.324 282.512C251.993 282.975 252.415 283.732 252.415 284.586H262.415ZM255.762 295.645C259.709 293.551 262.415 289.388 262.415 284.586H252.415C252.415 285.543 251.882 286.383 251.074 286.812L255.762 295.645ZM238.884 308.117C248.494 308.117 256.497 301.284 258.32 292.214L248.516 290.244C247.613 294.735 243.638 298.117 238.884 298.117V308.117ZM219.448 292.214C221.271 301.284 229.274 308.117 238.884 308.117V298.117C234.13 298.117 230.155 294.735 229.253 290.244L219.448 292.214ZM215.354 284.586C215.354 289.388 218.06 293.55 222.006 295.645L226.695 286.812C225.886 286.383 225.354 285.543 225.354 284.586H215.354ZM220.762 274.284C217.505 276.533 215.354 280.308 215.354 284.586H225.354C225.354 283.732 225.775 282.975 226.445 282.512L220.762 274.284ZM218.236 275.012C218.236 276.539 218.403 278.033 218.721 279.475L228.486 277.321C228.323 276.582 228.236 275.81 228.236 275.012H218.236ZM218.247 274.327C218.24 274.554 218.236 274.783 218.236 275.012H228.236C228.236 274.892 228.238 274.773 228.242 274.654L218.247 274.327ZM219.827 278.683C220.524 278.95 221.316 279.185 222.166 279.373L224.323 269.608C223.892 269.513 223.582 269.413 223.408 269.346L219.827 278.683ZM235.602 253.516C229.389 254.417 224.796 256.417 221.663 260.364C218.802 263.969 217.716 268.625 216.742 272.905L226.493 275.124C227.563 270.419 228.287 268.104 229.496 266.581C230.432 265.401 232.169 264.118 237.037 263.412L235.602 253.516ZM248.574 254.507C242.953 250.063 236.454 252.619 233.827 254.13L238.813 262.798C239.465 262.423 240.296 262.11 241.035 262.039C241.686 261.977 242.059 262.105 242.371 262.351L248.574 254.507ZM238.781 360.311C254.904 360.311 267.974 347.241 267.974 331.118H257.974C257.974 341.718 249.381 350.311 238.781 350.311V360.311ZM209.589 331.118C209.589 347.241 222.659 360.311 238.781 360.311V350.311C228.182 350.311 219.589 341.718 219.589 331.118H209.589ZM238.781 301.926C222.659 301.926 209.589 314.996 209.589 331.118H219.589C219.589 320.519 228.182 311.926 238.781 311.926V301.926ZM267.974 331.118C267.974 314.996 254.904 301.926 238.781 301.926V311.926C249.381 311.926 257.974 320.519 257.974 331.118H267.974Z" fill="white" mask="url(#path-25-inside-3_2_75)"/>
<mask id="path-27-inside-4_2_75" fill="white">
<path fill-rule="evenodd" clip-rule="evenodd" d="M275.215 241.08C276.772 242.311 277.737 243.862 278.312 245.372C281.943 248.237 284.274 252.678 284.274 257.663C284.274 258.825 284.148 259.958 283.907 261.048C285.87 262.404 287.157 264.67 287.157 267.237C287.157 270.116 285.538 272.617 283.16 273.879C281.798 280.66 275.808 285.767 268.626 285.767C261.444 285.767 255.455 280.66 254.093 273.879C251.715 272.617 250.096 270.116 250.096 267.237C250.096 264.67 251.382 262.404 253.346 261.049C253.105 259.958 252.978 258.825 252.978 257.663C252.978 257.488 252.981 257.314 252.987 257.141C252.347 256.999 251.795 256.832 251.36 256.665C253.404 247.68 254.98 242.721 266.062 241.114C268.24 239.861 272.131 238.641 275.215 241.08ZM292.716 313.769C292.716 327.13 281.885 337.962 268.524 337.962C255.162 337.962 244.331 327.13 244.331 313.769C244.331 300.408 255.162 289.576 268.524 289.576C281.885 289.576 292.716 300.408 292.716 313.769Z"/>
</mask>
<path fill-rule="evenodd" clip-rule="evenodd" d="M275.215 241.08C276.772 242.311 277.737 243.862 278.312 245.372C281.943 248.237 284.274 252.678 284.274 257.663C284.274 258.825 284.148 259.958 283.907 261.048C285.87 262.404 287.157 264.67 287.157 267.237C287.157 270.116 285.538 272.617 283.16 273.879C281.798 280.66 275.808 285.767 268.626 285.767C261.444 285.767 255.455 280.66 254.093 273.879C251.715 272.617 250.096 270.116 250.096 267.237C250.096 264.67 251.382 262.404 253.346 261.049C253.105 259.958 252.978 258.825 252.978 257.663C252.978 257.488 252.981 257.314 252.987 257.141C252.347 256.999 251.795 256.832 251.36 256.665C253.404 247.68 254.98 242.721 266.062 241.114C268.24 239.861 272.131 238.641 275.215 241.08ZM292.716 313.769C292.716 327.13 281.885 337.962 268.524 337.962C255.162 337.962 244.331 327.13 244.331 313.769C244.331 300.408 255.162 289.576 268.524 289.576C281.885 289.576 292.716 300.408 292.716 313.769Z" fill="#5FA8AD"/>
<path d="M278.312 245.372L273.64 247.152L274.131 248.442L275.215 249.297L278.312 245.372ZM275.215 241.08L278.316 237.158V237.158L275.215 241.08ZM283.907 261.048L279.024 259.971L278.301 263.253L281.066 265.163L283.907 261.048ZM283.16 273.879L280.816 269.463L278.724 270.573L278.258 272.894L283.16 273.879ZM254.093 273.879L258.995 272.894L258.528 270.573L256.437 269.463L254.093 273.879ZM253.346 261.049L256.187 265.163L258.952 263.253L258.228 259.972L253.346 261.049ZM252.987 257.141L257.984 257.305L258.12 253.154L254.066 252.259L252.987 257.141ZM251.36 256.665L246.484 255.556L245.523 259.782L249.569 261.334L251.36 256.665ZM266.062 241.114L266.78 246.063L267.726 245.925L268.555 245.448L266.062 241.114ZM282.985 243.592C282.153 241.41 280.711 239.052 278.316 237.158L272.114 245.002C272.832 245.57 273.32 246.313 273.64 247.152L282.985 243.592ZM289.274 257.663C289.274 251.083 286.191 245.22 281.41 241.447L275.215 249.297C277.696 251.255 279.274 254.273 279.274 257.663H289.274ZM288.79 262.125C289.108 260.684 289.274 259.19 289.274 257.663H279.274C279.274 258.461 279.187 259.232 279.024 259.971L288.79 262.125ZM292.157 267.237C292.157 262.958 290.006 259.183 286.748 256.934L281.066 265.163C281.735 265.625 282.157 266.382 282.157 267.237H292.157ZM285.504 278.296C289.451 276.201 292.157 272.039 292.157 267.237H282.157C282.157 268.193 281.624 269.034 280.816 269.463L285.504 278.296ZM268.626 290.767C278.237 290.767 286.24 283.934 288.062 274.864L278.258 272.894C277.355 277.386 273.38 280.767 268.626 280.767V290.767ZM249.191 274.864C251.013 283.934 259.016 290.767 268.626 290.767V280.767C263.872 280.767 259.897 277.386 258.995 272.894L249.191 274.864ZM245.096 267.237C245.096 272.039 247.802 276.201 251.748 278.295L256.437 269.463C255.629 269.034 255.096 268.193 255.096 267.237H245.096ZM250.504 256.934C247.247 259.184 245.096 262.958 245.096 267.237H255.096C255.096 266.382 255.518 265.625 256.187 265.163L250.504 256.934ZM247.978 257.663C247.978 259.19 248.145 260.684 248.463 262.126L258.228 259.972C258.065 259.233 257.978 258.461 257.978 257.663H247.978ZM247.989 256.977C247.982 257.205 247.978 257.433 247.978 257.663H257.978C257.978 257.543 257.98 257.423 257.984 257.305L247.989 256.977ZM249.569 261.334C250.266 261.601 251.059 261.835 251.908 262.023L254.066 252.259C253.634 252.163 253.325 252.064 253.15 251.997L249.569 261.334ZM265.345 236.166C259.131 237.067 254.538 239.067 251.405 243.015C248.544 246.619 247.458 251.276 246.484 255.556L256.235 257.774C257.305 253.069 258.029 250.754 259.238 249.231C260.174 248.051 261.911 246.769 266.78 246.063L265.345 236.166ZM278.316 237.158C272.696 232.714 266.196 235.269 263.569 236.78L268.555 245.448C269.207 245.074 270.038 244.761 270.777 244.69C271.429 244.627 271.802 244.755 272.114 245.002L278.316 237.158ZM268.524 342.962C284.646 342.962 297.716 329.892 297.716 313.769H287.716C287.716 324.369 279.123 332.962 268.524 332.962V342.962ZM239.331 313.769C239.331 329.892 252.401 342.962 268.524 342.962V332.962C257.924 332.962 249.331 324.369 249.331 313.769H239.331ZM268.524 284.576C252.401 284.576 239.331 297.646 239.331 313.769H249.331C249.331 303.169 257.924 294.576 268.524 294.576V284.576ZM297.716 313.769C297.716 297.646 284.646 284.576 268.524 284.576V294.576C279.123 294.576 287.716 303.169 287.716 313.769H297.716Z" fill="white" mask="url(#path-27-inside-4_2_75)"/>
<mask id="path-29-inside-5_2_75" fill="white">
<path fill-rule="evenodd" clip-rule="evenodd" d="M319.828 253.472C321.385 254.703 322.35 256.254 322.925 257.764C326.557 260.63 328.887 265.07 328.887 270.055C328.887 271.218 328.761 272.351 328.52 273.441C330.484 274.797 331.77 277.063 331.77 279.629C331.77 282.509 330.151 285.01 327.773 286.272C326.411 293.053 320.422 298.16 313.24 298.16C306.057 298.16 300.068 293.052 298.706 286.272C296.328 285.01 294.709 282.509 294.709 279.629C294.709 277.063 295.996 274.797 297.959 273.441C297.718 272.351 297.591 271.218 297.591 270.055C297.591 269.881 297.594 269.707 297.6 269.533C296.96 269.392 296.408 269.225 295.973 269.058C298.017 260.073 299.593 255.114 310.675 253.507C312.853 252.254 316.744 251.034 319.828 253.472ZM337.329 326.161C337.329 339.523 326.498 350.354 313.137 350.354C299.776 350.354 288.944 339.523 288.944 326.161C288.944 312.8 299.776 301.969 313.137 301.969C326.498 301.969 337.329 312.8 337.329 326.161Z"/>
</mask>
<path fill-rule="evenodd" clip-rule="evenodd" d="M319.828 253.472C321.385 254.703 322.35 256.254 322.925 257.764C326.557 260.63 328.887 265.07 328.887 270.055C328.887 271.218 328.761 272.351 328.52 273.441C330.484 274.797 331.77 277.063 331.77 279.629C331.77 282.509 330.151 285.01 327.773 286.272C326.411 293.053 320.422 298.16 313.24 298.16C306.057 298.16 300.068 293.052 298.706 286.272C296.328 285.01 294.709 282.509 294.709 279.629C294.709 277.063 295.996 274.797 297.959 273.441C297.718 272.351 297.591 271.218 297.591 270.055C297.591 269.881 297.594 269.707 297.6 269.533C296.96 269.392 296.408 269.225 295.973 269.058C298.017 260.073 299.593 255.114 310.675 253.507C312.853 252.254 316.744 251.034 319.828 253.472ZM337.329 326.161C337.329 339.523 326.498 350.354 313.137 350.354C299.776 350.354 288.944 339.523 288.944 326.161C288.944 312.8 299.776 301.969 313.137 301.969C326.498 301.969 337.329 312.8 337.329 326.161Z" fill="#5FA8AD"/>
<path d="M322.925 257.764L318.253 259.545L318.744 260.834L319.828 261.689L322.925 257.764ZM319.828 253.472L316.727 257.394L316.727 257.394L319.828 253.472ZM328.52 273.441L323.638 272.364L322.914 275.646L325.679 277.555L328.52 273.441ZM327.773 286.272L325.429 281.855L323.338 282.965L322.871 285.287L327.773 286.272ZM298.706 286.272L303.608 285.287L303.141 282.965L301.05 281.855L298.706 286.272ZM297.959 273.441L300.8 277.555L303.565 275.646L302.841 272.364L297.959 273.441ZM297.6 269.533L302.597 269.697L302.733 265.547L298.679 264.651L297.6 269.533ZM295.973 269.058L291.097 267.948L290.136 272.174L294.182 273.726L295.973 269.058ZM310.675 253.507L311.393 258.455L312.339 258.318L313.169 257.841L310.675 253.507ZM327.598 255.984C326.766 253.803 325.324 251.444 322.929 249.55L316.727 257.394C317.445 257.963 317.933 258.706 318.253 259.545L327.598 255.984ZM333.887 270.055C333.887 263.475 330.804 257.612 326.023 253.839L319.828 261.689C322.309 263.648 323.887 266.666 323.887 270.055H333.887ZM333.403 274.518C333.721 273.076 333.887 271.582 333.887 270.055H323.887C323.887 270.853 323.8 271.625 323.638 272.364L333.403 274.518ZM336.77 279.629C336.77 275.351 334.619 271.576 331.361 269.326L325.679 277.555C326.349 278.017 326.77 278.775 326.77 279.629H336.77ZM330.117 290.688C334.064 288.594 336.77 284.431 336.77 279.629H326.77C326.77 280.586 326.238 281.426 325.429 281.855L330.117 290.688ZM313.24 303.16C322.85 303.16 330.853 296.327 332.675 287.257L322.871 285.287C321.969 289.778 317.993 293.16 313.24 293.16V303.16ZM293.804 287.257C295.626 296.327 303.629 303.16 313.24 303.16V293.16C308.486 293.16 304.51 289.778 303.608 285.287L293.804 287.257ZM289.709 279.629C289.709 284.431 292.415 288.593 296.362 290.688L301.05 281.855C300.242 281.426 299.709 280.586 299.709 279.629H289.709ZM295.117 269.327C291.86 271.576 289.709 275.351 289.709 279.629H299.709C299.709 278.775 300.131 278.018 300.8 277.555L295.117 269.327ZM292.591 270.055C292.591 271.582 292.758 273.076 293.076 274.518L302.841 272.364C302.678 271.625 302.591 270.853 302.591 270.055H292.591ZM292.603 269.37C292.595 269.597 292.591 269.826 292.591 270.055H302.591C302.591 269.935 302.593 269.816 302.597 269.697L292.603 269.37ZM294.182 273.726C294.879 273.993 295.672 274.228 296.521 274.416L298.679 264.651C298.247 264.556 297.938 264.456 297.763 264.389L294.182 273.726ZM309.958 248.559C303.744 249.46 299.152 251.46 296.018 255.407C293.157 259.012 292.071 263.668 291.097 267.948L300.848 270.167C301.918 265.462 302.642 263.147 303.851 261.624C304.787 260.444 306.524 259.161 311.393 258.455L309.958 248.559ZM322.929 249.55C317.309 245.106 310.809 247.661 308.182 249.173L313.169 257.841C313.82 257.466 314.651 257.153 315.391 257.082C316.042 257.02 316.415 257.148 316.727 257.394L322.929 249.55ZM313.137 355.354C329.259 355.354 342.329 342.284 342.329 326.161H332.329C332.329 336.761 323.737 345.354 313.137 345.354V355.354ZM283.944 326.161C283.944 342.284 297.014 355.354 313.137 355.354V345.354C302.537 345.354 293.944 336.761 293.944 326.161H283.944ZM313.137 296.969C297.014 296.969 283.944 310.039 283.944 326.161H293.944C293.944 315.562 302.537 306.969 313.137 306.969V296.969ZM342.329 326.161C342.329 310.039 329.259 296.969 313.137 296.969V306.969C323.737 306.969 332.329 315.562 332.329 326.161H342.329Z" fill="white" mask="url(#path-29-inside-5_2_75)"/>
<mask id="path-31-inside-6_2_75" fill="white">
<path fill-rule="evenodd" clip-rule="evenodd" d="M302.478 254.712C304.035 255.943 305 257.493 305.576 259.004C309.207 261.869 311.538 266.31 311.538 271.294C311.538 272.457 311.411 273.59 311.171 274.68C313.134 276.036 314.421 278.302 314.421 280.869C314.421 283.748 312.801 286.249 310.424 287.511C309.061 294.292 303.072 299.399 295.89 299.399C288.708 299.399 282.719 294.292 281.356 287.511C278.979 286.249 277.36 283.748 277.36 280.869C277.36 278.302 278.646 276.036 280.609 274.68C280.369 273.59 280.242 272.457 280.242 271.294C280.242 271.12 280.245 270.946 280.25 270.773C279.61 270.631 279.059 270.464 278.623 270.297C280.667 261.312 282.243 256.353 293.326 254.746C295.504 253.493 299.394 252.273 302.478 254.712ZM319.98 327.401C319.98 340.762 309.148 351.593 295.787 351.593C282.426 351.593 271.595 340.762 271.595 327.401C271.595 314.039 282.426 303.208 295.787 303.208C309.148 303.208 319.98 314.039 319.98 327.401Z"/>
</mask>
<path fill-rule="evenodd" clip-rule="evenodd" d="M302.478 254.712C304.035 255.943 305 257.493 305.576 259.004C309.207 261.869 311.538 266.31 311.538 271.294C311.538 272.457 311.411 273.59 311.171 274.68C313.134 276.036 314.421 278.302 314.421 280.869C314.421 283.748 312.801 286.249 310.424 287.511C309.061 294.292 303.072 299.399 295.89 299.399C288.708 299.399 282.719 294.292 281.356 287.511C278.979 286.249 277.36 283.748 277.36 280.869C277.36 278.302 278.646 276.036 280.609 274.68C280.369 273.59 280.242 272.457 280.242 271.294C280.242 271.12 280.245 270.946 280.25 270.773C279.61 270.631 279.059 270.464 278.623 270.297C280.667 261.312 282.243 256.353 293.326 254.746C295.504 253.493 299.394 252.273 302.478 254.712ZM319.98 327.401C319.98 340.762 309.148 351.593 295.787 351.593C282.426 351.593 271.595 340.762 271.595 327.401C271.595 314.039 282.426 303.208 295.787 303.208C309.148 303.208 319.98 314.039 319.98 327.401Z" fill="#7FC9CE"/>
<path d="M305.576 259.004L300.903 260.784L301.395 262.074L302.478 262.929L305.576 259.004ZM302.478 254.712L299.377 258.634L299.377 258.634L302.478 254.712ZM311.171 274.68L306.288 273.603L305.564 276.885L308.33 278.794L311.171 274.68ZM310.424 287.511L308.08 283.095L305.988 284.205L305.522 286.526L310.424 287.511ZM281.356 287.511L286.258 286.526L285.792 284.205L283.701 283.094L281.356 287.511ZM280.609 274.68L283.451 278.795L286.216 276.885L285.492 273.603L280.609 274.68ZM280.25 270.773L285.248 270.936L285.384 266.786L281.329 265.89L280.25 270.773ZM278.623 270.297L273.748 269.188L272.786 273.414L276.833 274.965L278.623 270.297ZM293.326 254.746L294.043 259.694L294.99 259.557L295.819 259.08L293.326 254.746ZM310.248 257.223C309.417 255.042 307.975 252.683 305.579 250.789L299.377 258.634C300.096 259.202 300.584 259.945 300.903 260.784L310.248 257.223ZM316.538 271.294C316.538 264.714 313.454 258.852 308.673 255.079L302.478 262.929C304.96 264.887 306.538 267.905 306.538 271.294H316.538ZM316.053 275.757C316.371 274.315 316.538 272.821 316.538 271.294H306.538C306.538 272.092 306.451 272.864 306.288 273.603L316.053 275.757ZM319.421 280.869C319.421 276.59 317.269 272.815 314.012 270.566L308.33 278.794C308.999 279.257 309.421 280.014 309.421 280.869H319.421ZM312.768 291.928C316.715 289.833 319.421 285.671 319.421 280.869H309.421C309.421 281.825 308.888 282.665 308.08 283.095L312.768 291.928ZM295.89 304.399C305.5 304.399 313.503 297.566 315.326 288.496L305.522 286.526C304.619 291.018 300.644 294.399 295.89 294.399V304.399ZM276.454 288.496C278.277 297.566 286.28 304.399 295.89 304.399V294.399C291.136 294.399 287.161 291.018 286.258 286.526L276.454 288.496ZM272.36 280.869C272.36 285.67 275.065 289.832 279.012 291.927L283.701 283.094C282.892 282.665 282.36 281.825 282.36 280.869H272.36ZM277.768 270.566C274.511 272.816 272.36 276.59 272.36 280.869H282.36C282.36 280.014 282.781 279.257 283.451 278.795L277.768 270.566ZM275.242 271.294C275.242 272.822 275.408 274.316 275.727 275.757L285.492 273.603C285.329 272.864 285.242 272.093 285.242 271.294H275.242ZM275.253 270.609C275.246 270.837 275.242 271.065 275.242 271.294H285.242C285.242 271.174 285.244 271.055 285.248 270.936L275.253 270.609ZM276.833 274.965C277.53 275.233 278.322 275.467 279.172 275.655L281.329 265.89C280.898 265.795 280.588 265.695 280.414 265.628L276.833 274.965ZM292.608 249.798C286.395 250.699 281.802 252.699 278.669 256.646C275.808 260.251 274.722 264.907 273.748 269.188L283.499 271.406C284.569 266.701 285.293 264.386 286.501 262.863C287.438 261.683 289.175 260.4 294.043 259.694L292.608 249.798ZM305.579 250.789C299.959 246.346 293.46 248.901 290.833 250.412L295.819 259.08C296.47 258.705 297.302 258.393 298.041 258.322C298.692 258.259 299.065 258.387 299.377 258.634L305.579 250.789ZM295.787 356.593C311.91 356.593 324.98 343.523 324.98 327.401H314.98C314.98 338 306.387 346.593 295.787 346.593V356.593ZM266.595 327.401C266.595 343.523 279.665 356.593 295.787 356.593V346.593C285.187 346.593 276.595 338 276.595 327.401H266.595ZM295.787 298.208C279.665 298.208 266.595 311.278 266.595 327.401H276.595C276.595 316.801 285.187 308.208 295.787 308.208V298.208ZM324.98 327.401C324.98 311.278 311.91 298.208 295.787 298.208V308.208C306.387 308.208 314.98 316.801 314.98 327.401H324.98Z" fill="white" mask="url(#path-31-inside-6_2_75)"/>
</g>
</g>
<defs>
<filter id="filter0_d_2_75" x="188" y="224" width="157.329" height="140.311" filterUnits="userSpaceOnUse" color-interpolation-filters="sRGB">
<feFlood flood-opacity="0" result="BackgroundImageFix"/>
<feColorMatrix in="SourceAlpha" type="matrix" values="0 0 0 0 0 0 0 0 0 0 0 0 0 0 0 0 0 0 127 0" result="hardAlpha"/>
<feOffset dy="1"/>
<feGaussianBlur stdDeviation="4"/>
<feComposite in2="hardAlpha" operator="out"/>
<feColorMatrix type="matrix" values="0 0 0 0 0 0 0 0 0 0 0 0 0 0 0 0 0 0 0.25 0"/>
<feBlend mode="normal" in2="BackgroundImageFix" result="effect1_dropShadow_2_75"/>
<feBlend mode="normal" in="SourceGraphic" in2="effect1_dropShadow_2_75" result="shape"/>
</filter>
</defs>
</svg>
