<svg width="352" height="370" viewBox="0 0 352 370" fill="none" xmlns="http://www.w3.org/2000/svg">
<mask id="mask0_0_3" style="mask-type:alpha" maskUnits="userSpaceOnUse" x="0" y="0" width="352" height="370">
<rect width="352" height="370" fill="white"/>
</mask>
<g mask="url(#mask0_0_3)">
<rect width="352" height="370" fill="white"/>
<circle cx="178.5" cy="407.5" r="117.5" fill="#6CB44A"/>
<circle cx="179" cy="135" r="76" fill="#768DDD"/>
<path d="M125.5 218C105.342 218 89 201.659 89 181.5C89 161.342 105.342 145 125.5 145L232.5 145C252.658 145 269 161.342 269 181.5C269 201.659 252.658 218 232.5 218L125.5 218Z" fill="#E19981"/>
<path d="M107 143C107 114.834 129.833 92.0002 158 92.0002H200C228.167 92.0002 251 114.834 251 143V220.5C251 248.667 228.167 271.5 200 271.5H158C129.833 271.5 107 248.667 107 220.5L107 143Z" fill="#F1C2B3"/>
<path d="M176.194 53.452C113.585 59.7545 105.632 84.0324 95.1383 130.155C107.231 134.793 137.619 139.426 162.43 120.856C187.24 102.286 181.944 68.1826 176.194 53.452Z" fill="#5054C1"/>
<path d="M162.455 57.2688C178.104 98.9007 196.132 99.9355 229.544 98.7479C230.521 89.6461 228.18 68.0459 210.998 54.46C193.816 40.8741 171.477 50.6718 162.455 57.2688Z" fill="#5054C1"/>
<path d="M159 203.456C159 198.233 163.233 194 168.456 194H189.358C194.683 194 199 198.317 199 203.642C199 206.375 197.858 209.015 195.732 210.732C183.275 220.794 175.003 220.052 162.529 210.708C160.259 209.009 159 206.291 159 203.456Z" fill="white"/>
<circle r="11.5" transform="matrix(-1 0 0 1 149.5 170.5)" fill="black"/>
<circle r="11.5" transform="matrix(-1 0 0 1 208.5 170.5)" fill="black"/>
<rect x="131" y="150" width="38" height="15" rx="7.5" fill="#164789"/>
<rect width="38" height="15" rx="7.5" transform="matrix(-1 -8.74228e-08 -8.74228e-08 1 229 150)" fill="#164789"/>
</g>
</svg>
