<svg width="352" height="370" viewBox="0 0 352 370" fill="none" xmlns="http://www.w3.org/2000/svg">
<mask id="mask0_0_59" style="mask-type:alpha" maskUnits="userSpaceOnUse" x="0" y="0" width="352" height="370">
<rect width="352" height="370" fill="white"/>
</mask>
<g mask="url(#mask0_0_59)">
<rect width="352" height="370" fill="white"/>
<circle cx="175.5" cy="410.5" r="117.5" fill="#7FC8DF"/>
<circle cx="176" cy="138" r="76" fill="#07090A"/>
<path d="M111 241C97.1929 241 86 229.807 86 216L86 181C86 167.193 97.1929 156 111 156L241 156C254.807 156 266 167.193 266 181L266 216C266 229.807 254.807 241 241 241L111 241Z" fill="#823D27"/>
<path d="M111 241C97.1929 241 86 229.807 86 216L86 181C86 167.193 97.1929 156 111 156L241 156C254.807 156 266 167.193 266 181L266 216C266 229.807 254.807 241 241 241L111 241Z" fill="#823D27"/>
<path d="M104 146C104 117.833 126.833 95 155 95H197C225.167 95 248 117.833 248 146V223.5C248 251.667 225.167 274.5 197 274.5H155C126.833 274.5 104 251.667 104 223.5L104 146Z" fill="#985844"/>
<path d="M156 214.456C156 209.233 160.233 205 165.456 205H186.358C191.683 205 196 209.317 196 214.642C196 217.375 194.858 220.015 192.732 221.732C180.275 231.794 172.003 231.052 159.529 221.708C157.259 220.009 156 217.291 156 214.456Z" fill="white"/>
<circle r="11.5" transform="matrix(-1 0 0 1 146.5 173.5)" fill="black"/>
<circle r="11.5" transform="matrix(-1 0 0 1 205.5 173.5)" fill="black"/>
<rect x="190.176" y="138.338" width="38" height="15" rx="7.5" transform="rotate(15 190.176 138.338)" fill="#334041"/>
<rect width="38" height="15" rx="7.5" transform="matrix(-0.965926 0.258819 0.258819 0.965926 163.411 138)" fill="#334041"/>
<rect x="120" y="52" width="111" height="63" rx="31.5" fill="#363E3F"/>
</g>
</svg>
