<svg width="352" height="370" viewBox="0 0 352 370" fill="none" xmlns="http://www.w3.org/2000/svg">
<mask id="mask0_0_124" style="mask-type:alpha" maskUnits="userSpaceOnUse" x="0" y="0" width="352" height="370">
<rect width="352" height="370" fill="white"/>
</mask>
<g mask="url(#mask0_0_124)">
<rect width="352" height="370" fill="white"/>
<circle cx="178.5" cy="415.5" r="117.5" fill="#3782AC"/>
<circle cx="70" cy="245" r="66" fill="#D55C5C"/>
<circle cx="282" cy="245" r="66" fill="#D55C5C"/>
<circle cx="176" cy="156" r="103" fill="#D55C5C"/>
<rect x="91" y="189" width="174" height="59" rx="29.5" fill="#E19982"/>
<ellipse cx="101" cy="254" rx="10" ry="24" fill="#EDEDED"/>
<ellipse cx="255" cy="254" rx="10" ry="24" fill="#EDEDED"/>
<ellipse cx="177.5" cy="188.5" rx="76.5" ry="88.5" fill="#F1C2B3"/>
<circle r="11.5" transform="matrix(-1 0 0 1 149.5 213.5)" fill="black"/>
<circle r="11.5" transform="matrix(-1 0 0 1 208.5 213.5)" fill="black"/>
<path d="M299.799 145.035C264.898 73.0289 232.43 74.147 172.766 81.7831C172.516 98.2508 180.27 136.563 213.293 158.071C246.315 179.578 284.723 158.342 299.799 145.035Z" fill="#960B45"/>
<path d="M271.833 198.546C262.946 110.223 228.698 99.0015 163.633 84.1952C157.09 101.254 150.552 144.122 176.747 179.124C202.942 214.126 251.052 206.656 271.833 198.546Z" fill="#960B45"/>
<path d="M75.5614 203.634C162.155 184.105 169.142 148.749 175.951 82.369C158.225 77.9423 114.88 76.65 83.3124 106.895C51.7445 137.14 64.9918 183.99 75.5614 203.634Z" fill="#960B45"/>
<circle cx="137" cy="241" r="11" fill="#E77086" fill-opacity="0.3"/>
<circle cx="218" cy="241" r="11" fill="#E77086" fill-opacity="0.3"/>
<path d="M161 237.118C161 234.06 164.517 231.354 168.078 229.699C171.681 228.026 175.521 229.848 177.939 233C180.438 229.842 184.347 228.017 187.984 229.747C191.53 231.434 195 234.185 195 237.291C195 240.215 194.035 243.002 192.32 244.64C181.63 254.843 174.573 254.074 163.858 244.583C162.049 242.981 161 240.132 161 237.118Z" fill="#DE2B2B"/>
<path d="M163.858 244.583C174.573 254.074 181.63 254.843 192.32 244.64C194.035 243.002 195 240.215 195 237.291L178 240.5L161 237.117C161 240.132 162.049 242.981 163.858 244.583Z" fill="#BA2020"/>
<rect x="137" y="181" width="25" height="15" rx="7.5" fill="#5B1212"/>
<rect x="196" y="181" width="25" height="15" rx="7.5" fill="#5B1212"/>
</g>
</svg>
